<?xml version="1.0" encoding="UTF-8" standalone="no"?>
<!-- Created with Inkscape (http://www.inkscape.org/) -->

<svg
   xmlns:dc="http://purl.org/dc/elements/1.1/"
   xmlns:cc="http://creativecommons.org/ns#"
   xmlns:rdf="http://www.w3.org/1999/02/22-rdf-syntax-ns#"
   xmlns:svg="http://www.w3.org/2000/svg"
   xmlns="http://www.w3.org/2000/svg"
   xmlns:sodipodi="http://sodipodi.sourceforge.net/DTD/sodipodi-0.dtd"
   xmlns:inkscape="http://www.inkscape.org/namespaces/inkscape"
   width="389.78345"
   height="357.33069"
   id="svg2"
   version="1.1"
   inkscape:version="0.48.4 r9939"
   sodipodi:docname="Logo_C_SHH.svg"
   inkscape:export-filename="/Users/aaron/Desktop/SHHM Logo/SHHM Logo.png"
   inkscape:export-xdpi="89.647064"
   inkscape:export-ydpi="89.647064">
  <sodipodi:namedview
     id="base"
     pagecolor="#ffffff"
     bordercolor="#666666"
     borderopacity="1.0"
     inkscape:pageopacity="0.0"
     inkscape:pageshadow="2"
     inkscape:zoom="1.6091537"
     inkscape:cx="194.89173"
     inkscape:cy="178.66534"
     inkscape:document-units="mm"
     inkscape:current-layer="layer1"
     showgrid="false"
     units="mm"
     inkscape:window-width="1257"
     inkscape:window-height="784"
     inkscape:window-x="0"
     inkscape:window-y="31"
     inkscape:window-maximized="0"
     inkscape:snap-global="true"
     fit-margin-top="0"
     fit-margin-left="0"
     fit-margin-right="0"
     fit-margin-bottom="0"
     showguides="true"
     inkscape:guide-bbox="true">
    <inkscape:grid
       originy="-235.14501mm"
       originx="-396.61043mm"
       spacingy="1mm"
       spacingx="1mm"
       units="mm"
       snapvisiblegridlinesonly="true"
       enabled="true"
       visible="true"
       empspacing="5"
       id="grid2985"
       type="xygrid" />
  </sodipodi:namedview>
  <defs
     id="defs4">
    <marker
       inkscape:stockid="Arrow2Sstart"
       orient="auto"
       refY="0"
       refX="0"
       id="Arrow2Sstart"
       style="overflow:visible">
      <path
         id="path3871"
         style="fill-rule:evenodd;stroke-width:0.625;stroke-linejoin:round"
         d="M 8.7185878,4.0337352 -2.2072895,0.01601326 8.7185884,-4.0017078 c -1.7454984,2.3720609 -1.7354408,5.6174519 -6e-7,8.035443 z"
         transform="matrix(0.3,0,0,0.3,-0.69,0)"
         inkscape:connector-curvature="0" />
    </marker>
    <marker
       inkscape:stockid="Arrow2Mstart"
       orient="auto"
       refY="0"
       refX="0"
       id="Arrow2Mstart"
       style="overflow:visible">
      <path
         id="path3865"
         style="fill-rule:evenodd;stroke-width:0.625;stroke-linejoin:round"
         d="M 8.7185878,4.0337352 -2.2072895,0.01601326 8.7185884,-4.0017078 c -1.7454984,2.3720609 -1.7354408,5.6174519 -6e-7,8.035443 z"
         transform="scale(0.6,0.6)"
         inkscape:connector-curvature="0" />
    </marker>
    <marker
       inkscape:stockid="Arrow1Lstart"
       orient="auto"
       refY="0"
       refX="0"
       id="Arrow1Lstart"
       style="overflow:visible">
      <path
         id="path3841"
         d="M 0,0 5,-5 -12.5,0 5,5 0,0 z"
         style="fill-rule:evenodd;stroke:#000000;stroke-width:1pt"
         transform="matrix(0.8,0,0,0.8,10,0)"
         inkscape:connector-curvature="0" />
    </marker>
  </defs>
  <metadata
     id="metadata7">
    <rdf:RDF>
      <cc:Work
         rdf:about="">
        <dc:format>image/svg+xml</dc:format>
        <dc:type
           rdf:resource="http://purl.org/dc/dcmitype/StillImage" />
        <dc:title></dc:title>
      </cc:Work>
    </rdf:RDF>
  </metadata>
  <g
     transform="translate(-1405.3125,138.15954)"
     id="layer1"
     inkscape:groupmode="layer"
     inkscape:label="Layer 1">
    <g
       id="g7706"
       transform="translate(1204.0708,339.41439)"
       inkscape:label="Gear24" />
    <g
       id="g7708"
       transform="translate(1260,0)" />
    <flowRoot
       xml:space="preserve"
       id="flowRoot7710"
       style="font-size:40px;font-style:normal;font-variant:normal;font-weight:normal;font-stretch:normal;line-height:125%;letter-spacing:-1.66999996px;word-spacing:0px;fill:#000000;fill-opacity:1;stroke:none;font-family:Droid Sans;-inkscape-font-specification:Droid Sans"
       transform="translate(1260,0)"><flowRegion
         id="flowRegion7712"><rect
           id="rect7714"
           width="170.15762"
           height="124.04014"
           x="-365.7594"
           y="196.84633" /></flowRegion><flowPara
         id="flowPara7716" /></flowRoot>    <g
       id="g8109"
       transform="translate(1204.0708,339.41439)"
       inkscape:label="Gear24" />
    <g
       id="g8111"
       transform="translate(1260,0)" />
    <flowRoot
       xml:space="preserve"
       id="flowRoot8113"
       style="font-size:40px;font-style:normal;font-variant:normal;font-weight:normal;font-stretch:normal;line-height:125%;letter-spacing:-1.66999996px;word-spacing:0px;fill:#000000;fill-opacity:1;stroke:none;font-family:Droid Sans;-inkscape-font-specification:Droid Sans"
       transform="translate(1260,0)"><flowRegion
         id="flowRegion8115"><rect
           id="rect8117"
           width="170.15762"
           height="124.04014"
           x="-365.7594"
           y="196.84633" /></flowRegion><flowPara
         id="flowPara8119" /></flowRoot>    <g
       id="g8349"
       transform="translate(-80,0)">
      <g
         style="fill:#000000;stroke:#000000;stroke-width:1.41447985"
         transform="matrix(1.1195783,0,0,1.1428571,-158.81221,392.53579)"
         id="g8016">
        <rect
           rx="17.716536"
           ry="17.716536"
           style="fill:#000000;fill-opacity:1;stroke:#000000;stroke-width:2.6521492;stroke-miterlimit:4;stroke-opacity:1;stroke-dasharray:none;stroke-dashoffset:0"
           id="rect8012"
           width="345.47244"
           height="310.03937"
           x="1469.8612"
           y="-463.04593" />
      </g>
      <g
         id="g8229"
         style="font-size:40px;font-style:normal;font-variant:normal;font-weight:normal;font-stretch:normal;line-height:125%;letter-spacing:-1.66999996px;word-spacing:0px;fill:#ffffff;fill-opacity:1;stroke:#ffffff;stroke-width:1.47922456;stroke-opacity:1;font-family:Droid Sans;-inkscape-font-specification:Droid Sans"
         transform="matrix(1.3520597,-0.32312346,0,1.3520597,2593.8716,-277.33329)">
        <path
           id="path8231"
           style="font-weight:600;line-height:100%;letter-spacing:0px;fill:#ffffff;fill-opacity:1;stroke:#ffffff;stroke-width:1.47922456;stroke-opacity:1;font-family:FreeSans;-inkscape-font-specification:FreeSans Semi-Bold"
           d="m -767.3375,6.18875 -5.6,0 c -0.21335,-3.0399767 -2.25335,-4.5599752 -6.12,-4.56 -1.54668,2.48e-5 -2.77334,0.3333578 -3.68,1 -0.90667,0.6400232 -1.36001,1.506689 -1.36,2.6 -1e-5,1.0666868 0.38666,1.866686 1.16,2.4 0.77332,0.506685 2.22666,0.9733512 4.36,1.4 l 4.56,0.88 c 2.69331,0.533349 4.65331,1.440015 5.88,2.72 1.22664,1.253346 1.83997,3.026677 1.84,5.32 -3e-5,2.960006 -1.05336,5.280003 -3.16,6.96 -2.10669,1.653333 -5.04002,2.479999 -8.8,2.48 -3.73334,-1e-6 -6.64001,-0.826667 -8.72,-2.48 -2.05334,-1.65333 -3.17334,-4.039994 -3.36,-7.16 l 5.84,0 c 0.10666,1.57334 0.71999,2.773339 1.84,3.6 1.11999,0.826671 2.69332,1.240004 4.72,1.24 1.81332,4e-6 3.23998,-0.346662 4.28,-1.04 1.06665,-0.693328 1.59998,-1.653327 1.6,-2.88 -2e-5,-1.173324 -0.41335,-2.07999 -1.24,-2.72 -0.82668,-0.639989 -2.24002,-1.146655 -4.24,-1.52 l -4.08,-0.8 c -2.96001,-0.559987 -5.06667,-1.439986 -6.32,-2.64 -1.25334,-1.1999833 -1.88,-2.9333149 -1.88,-5.2 0,-2.8533098 0.96,-5.0533076 2.88,-6.6 1.94666,-1.5733045 4.66666,-2.3599704 8.16,-2.36 1.01332,2.96e-5 1.98665,0.066696 2.92,0.2 0.95998,0.1333626 1.97332,0.4133624 3.04,0.84 1.06665,0.4000282 1.98665,0.933361 2.76,1.6 0.77331,0.64002636 1.41331,1.5466921 1.92,2.72 0.53331,1.1466898 0.79998,2.4800218 0.8,4"
           inkscape:connector-curvature="0" />
        <path
           id="path8233"
           style="font-weight:600;line-height:100%;letter-spacing:0px;fill:#ffffff;fill-opacity:1;stroke:#ffffff;stroke-width:1.47922456;stroke-opacity:1;font-family:FreeSans;-inkscape-font-specification:FreeSans Semi-Bold"
           d="m -743.91187,13.22875 -11.56,0 0,13.24 -6,0 0,-29.16 6,0 0,10.92 11.52,0 0,-10.92 6.04,0 0,29.16 -6,0 0,-13.24"
           inkscape:connector-curvature="0" />
        <path
           id="path8235"
           style="font-weight:600;line-height:100%;letter-spacing:0px;fill:#ffffff;fill-opacity:1;stroke:#ffffff;stroke-width:1.47922456;stroke-opacity:1;font-family:FreeSans;-inkscape-font-specification:FreeSans Semi-Bold"
           d="m -725.55,13.90875 0,7.56 15.8,0 0,5 -21.8,0 0,-29.16 21.08,0 0,5 -15.08,0 0,6.6 13.96,0 0,5 -13.96,0"
           inkscape:connector-curvature="0" />
        <path
           id="path8237"
           style="font-weight:600;line-height:100%;letter-spacing:0px;fill:#ffffff;fill-opacity:1;stroke:#ffffff;stroke-width:1.47922456;stroke-opacity:1;font-family:FreeSans;-inkscape-font-specification:FreeSans Semi-Bold"
           d="m -698.9875,13.90875 0,12.56 -6,0 0,-29.16 20.48,0 0,5 -14.48,0 0,6.6 12.76,0 0,5 -12.76,0"
           inkscape:connector-curvature="0" />
        <path
           id="path8239"
           style="font-weight:600;line-height:100%;letter-spacing:0px;fill:#ffffff;fill-opacity:1;stroke:#ffffff;stroke-width:1.47922456;stroke-opacity:1;font-family:FreeSans;-inkscape-font-specification:FreeSans Semi-Bold"
           d="m -673.675,13.90875 0,12.56 -6,0 0,-29.16 20.48,0 0,5 -14.48,0 0,6.6 12.76,0 0,5 -12.76,0"
           inkscape:connector-curvature="0" />
        <path
           id="path8241"
           style="font-weight:600;line-height:100%;letter-spacing:0px;fill:#ffffff;fill-opacity:1;stroke:#ffffff;stroke-width:1.47922456;stroke-opacity:1;font-family:FreeSans;-inkscape-font-specification:FreeSans Semi-Bold"
           d="m -648.3625,-2.69125 0,29.16 -6,0 0,-29.16 6,0"
           inkscape:connector-curvature="0" />
        <path
           id="path8243"
           style="font-weight:600;line-height:100%;letter-spacing:0px;fill:#ffffff;fill-opacity:1;stroke:#ffffff;stroke-width:1.47922456;stroke-opacity:1;font-family:FreeSans;-inkscape-font-specification:FreeSans Semi-Bold"
           d="m -635.94062,13.90875 0,7.56 15.8,0 0,5 -21.8,0 0,-29.16 21.07999,0 0,5 -15.07999,0 0,6.6 13.95999,0 0,5 -13.95999,0"
           inkscape:connector-curvature="0" />
        <path
           id="path8245"
           style="font-weight:600;line-height:100%;letter-spacing:0px;fill:#ffffff;fill-opacity:1;stroke:#ffffff;stroke-width:1.47922456;stroke-opacity:1;font-family:FreeSans;-inkscape-font-specification:FreeSans Semi-Bold"
           d="m -609.37812,-2.69125 0,24.16 13.95999,0 0,5 -19.95999,0 0,-29.16 6,0"
           inkscape:connector-curvature="0" />
        <path
           id="path8247"
           style="font-weight:600;line-height:100%;letter-spacing:0px;fill:#ffffff;fill-opacity:1;stroke:#ffffff;stroke-width:1.47922456;stroke-opacity:1;font-family:FreeSans;-inkscape-font-specification:FreeSans Semi-Bold"
           d="m -590.6125,26.46875 0,-29.16 11.4,0 c 2.23998,2.92e-5 4.07998,0.2666956 5.52,0.8 1.46665,0.5333612 2.69331,1.38669364 3.68,2.56 2.37331,2.8266896 3.55997,6.5600192 3.56,11.2 -3e-5,4.693343 -1.18669,8.426673 -3.56,11.2 -1.89336,2.266668 -4.96002,3.4 -9.2,3.4 l -11.4,0 m 6,-5 5.4,0 c 4.50665,5e-6 6.75998,-3.186658 6.76,-9.56 -2e-5,-6.399979 -2.25335,-9.5999758 -6.76,-9.6 l -5.4,0 0,19.16"
           inkscape:connector-curvature="0" />
        <path
           id="path8249"
           style="font-weight:600;line-height:100%;letter-spacing:-1.37px;fill:#ffffff;fill-opacity:1;stroke:#ffffff;stroke-width:1.47922456;stroke-opacity:1;font-family:FreeSans;-inkscape-font-specification:FreeSans Semi-Bold"
           d="m -771.1775,53.22875 -11.56,0 0,13.24 -6,0 0,-29.16 6,0 0,10.92 11.52,0 0,-10.92 6.04,0 0,29.16 -6,0 0,-13.24"
           inkscape:connector-curvature="0" />
        <path
           id="path8251"
           style="font-weight:600;line-height:100%;letter-spacing:-1.37px;fill:#ffffff;fill-opacity:1;stroke:#ffffff;stroke-width:1.47922456;stroke-opacity:1;font-family:FreeSans;-inkscape-font-specification:FreeSans Semi-Bold"
           d="m -743.98563,60.58875 -10.92,0 -1.96,5.88 -6.12,0 10.36,-29.16 6.64,0 10.08,29.16 -6.16,0 -1.92,-5.88 m -1.64,-5 -3.8,-11.4 -3.8,11.4 7.6,0"
           inkscape:connector-curvature="0" />
        <path
           id="path8253"
           style="font-weight:600;line-height:100%;letter-spacing:-1.37px;fill:#ffffff;fill-opacity:1;stroke:#ffffff;stroke-width:1.47922456;stroke-opacity:1;font-family:FreeSans;-inkscape-font-specification:FreeSans Semi-Bold"
           d="m -717.145,61.46875 c -2e-5,-0.799994 0.0133,-1.42666 0.04,-1.88 0.0267,-0.453326 0.04,-0.853326 0.04,-1.2 -2e-5,-1.226657 -0.29335,-2.106656 -0.88,-2.64 -0.58669,-0.559989 -1.53335,-0.839988 -2.84,-0.84 l -6.88,0 0,11.56 -6,0 0,-29.16 15.64,0 c 1.49331,2.9e-5 2.77331,0.253362 3.84,0.76 1.09331,0.506695 1.90664,1.173361 2.44,2 0.55997,0.826692 0.95997,1.666691 1.2,2.52 0.23997,0.82669 0.35997,1.693356 0.36,2.6 -3e-5,3.520018 -1.64003,5.920015 -4.92,7.2 0.71998,0.293347 1.25331,0.533347 1.6,0.72 0.34664,0.160013 0.69331,0.440013 1.04,0.84 0.37331,0.400012 0.61331,0.760012 0.72,1.08 0.13331,0.320011 0.25331,0.906677 0.36,1.76 0.13331,0.853342 0.21331,1.693341 0.24,2.52 0.0266,0.826673 0.0533,2.053338 0.08,3.68 -3e-5,1.120002 0.42664,1.920002 1.28,2.4 l 0,1.08 -6.44,0 c -0.37336,-0.693333 -0.62669,-1.359999 -0.76,-2 -0.10669,-0.639997 -0.16002,-1.639996 -0.16,-3 m 0.96,-15.44 c -2e-5,-1.493311 -0.34669,-2.479977 -1.04,-2.96 -0.69335,-0.506643 -1.76002,-0.759976 -3.2,-0.76 l -7.24,0 0,7.6 7.24,0 c 1.41331,1.7e-5 2.46665,-0.253317 3.16,-0.76 0.71998,-0.506649 1.07998,-1.546648 1.08,-3.12"
           inkscape:connector-curvature="0" />
        <path
           id="path8255"
           style="font-weight:600;line-height:100%;letter-spacing:-1.37px;fill:#ffffff;fill-opacity:1;stroke:#ffffff;stroke-width:1.47922456;stroke-opacity:1;font-family:FreeSans;-inkscape-font-specification:FreeSans Semi-Bold"
           d="m -706.12875,66.46875 0,-29.16 11.4,0 c 2.23998,2.9e-5 4.07998,0.266696 5.52,0.8 1.46664,0.533361 2.69331,1.386694 3.68,2.56 2.37331,2.82669 3.55997,6.560019 3.56,11.2 -3e-5,4.693343 -1.18669,8.426673 -3.56,11.2 -1.89336,2.266668 -4.96002,3.4 -9.2,3.4 l -11.4,0 m 6,-5 5.4,0 c 4.50665,5e-6 6.75998,-3.186658 6.76,-9.56 -2e-5,-6.399979 -2.25335,-9.599976 -6.76,-9.6 l -5.4,0 0,19.16"
           inkscape:connector-curvature="0" />
        <path
           id="path8257"
           style="font-weight:600;line-height:100%;letter-spacing:-1.37px;fill:#ffffff;fill-opacity:1;stroke:#ffffff;stroke-width:1.47922456;stroke-opacity:1;font-family:FreeSans;-inkscape-font-specification:FreeSans Semi-Bold"
           d="m -652.23438,66.46875 -5.4,0 -4.88,-22.76 -4.76,22.76 -5.4,0 -8.24,-29.16 6.36,0 4.52,21.84 4.52,-21.84 5.92,0 4.72,21.88 4.36,-21.88 6.36,0 -8.08,29.16"
           inkscape:connector-curvature="0" />
        <path
           id="path8259"
           style="font-weight:600;line-height:100%;letter-spacing:-1.37px;fill:#ffffff;fill-opacity:1;stroke:#ffffff;stroke-width:1.47922456;stroke-opacity:1;font-family:FreeSans;-inkscape-font-specification:FreeSans Semi-Bold"
           d="m -625.32501,60.58875 -10.92,0 -1.96,5.88 -6.12,0 10.36,-29.16 6.64,0 10.08,29.16 -6.16,0 -1.92,-5.88 m -1.64,-5 -3.8,-11.4 -3.8,11.4 7.6,0"
           inkscape:connector-curvature="0" />
        <path
           id="path8261"
           style="font-weight:600;line-height:100%;letter-spacing:-1.37px;fill:#ffffff;fill-opacity:1;stroke:#ffffff;stroke-width:1.47922456;stroke-opacity:1;font-family:FreeSans;-inkscape-font-specification:FreeSans Semi-Bold"
           d="m -598.48438,61.46875 c -2e-5,-0.799994 0.0133,-1.42666 0.04,-1.88 0.0267,-0.453326 0.04,-0.853326 0.04,-1.2 -2e-5,-1.226657 -0.29335,-2.106656 -0.88,-2.64 -0.58668,-0.559989 -1.53335,-0.839988 -2.84,-0.84 l -6.88,0 0,11.56 -6,0 0,-29.16 15.64,0 c 1.49332,2.9e-5 2.77332,0.253362 3.84,0.76 1.09331,0.506695 1.90665,1.173361 2.44,2 0.55998,0.826692 0.95998,1.666691 1.2,2.52 0.23998,0.82669 0.35998,1.693356 0.36,2.6 -2e-5,3.520018 -1.64002,5.920015 -4.92,7.2 0.71998,0.293347 1.25331,0.533347 1.6,0.72 0.34665,0.160013 0.69331,0.440013 1.04,0.84 0.37331,0.400012 0.61331,0.760012 0.72,1.08 0.13331,0.320011 0.25331,0.906677 0.36,1.76 0.13331,0.853342 0.21331,1.693341 0.24,2.52 0.0266,0.826673 0.0533,2.053338 0.08,3.68 -2e-5,1.120002 0.42664,1.920002 1.28,2.4 l 0,1.08 -6.44,0 c -0.37335,-0.693333 -0.62668,-1.359999 -0.76,-2 -0.10668,-0.639997 -0.16002,-1.639996 -0.16,-3 m 0.96,-15.44 c -2e-5,-1.493311 -0.34668,-2.479977 -1.04,-2.96 -0.69335,-0.506643 -1.76001,-0.759976 -3.2,-0.76 l -7.24,0 0,7.6 7.24,0 c 1.41332,1.7e-5 2.46665,-0.253317 3.16,-0.76 0.71998,-0.506649 1.07998,-1.546648 1.08,-3.12"
           inkscape:connector-curvature="0" />
        <path
           id="path8263"
           style="font-weight:600;line-height:100%;letter-spacing:-1.37px;fill:#ffffff;fill-opacity:1;stroke:#ffffff;stroke-width:1.47922456;stroke-opacity:1;font-family:FreeSans;-inkscape-font-specification:FreeSans Semi-Bold"
           d="m -581.46812,53.90875 0,7.56 15.8,0 0,5 -21.8,0 0,-29.16 21.08,0 0,5 -15.08,0 0,6.6 13.96,0 0,5 -13.96,0"
           inkscape:connector-curvature="0" />
        <path
           id="path8265"
           style="font-weight:600;line-height:100%;letter-spacing:-1.45000005px;fill:#ffffff;fill-opacity:1;stroke:#ffffff;stroke-width:1.47922456;stroke-opacity:1;font-family:FreeSans;-inkscape-font-specification:FreeSans Semi-Bold"
           d="m -771.1775,93.22875 -11.56,0 0,13.24 -6,0 0,-29.16 6,0 0,10.92 11.52,0 0,-10.92 6.04,0 0,29.16 -6,0 0,-13.24"
           inkscape:connector-curvature="0" />
        <path
           id="path8267"
           style="font-weight:600;line-height:100%;letter-spacing:-1.45000005px;fill:#ffffff;fill-opacity:1;stroke:#ffffff;stroke-width:1.47922456;stroke-opacity:1;font-family:FreeSans;-inkscape-font-specification:FreeSans Semi-Bold"
           d="m -744.06563,100.58875 -10.92,0 -1.96,5.88 -6.12,0 10.36,-29.16 6.64,0 10.08,29.16 -6.16,0 -1.92,-5.88 m -1.64,-5 -3.8,-11.4 -3.8,11.4 7.6,0"
           inkscape:connector-curvature="0" />
        <path
           id="path8269"
           style="font-weight:600;line-height:100%;letter-spacing:-1.45000005px;fill:#ffffff;fill-opacity:1;stroke:#ffffff;stroke-width:1.47922456;stroke-opacity:1;font-family:FreeSans;-inkscape-font-specification:FreeSans Semi-Bold"
           d="m -715.625,87.18875 c -0.74669,-3.493311 -2.82669,-5.239975 -6.24,-5.24 -2.37335,2.5e-5 -4.22668,0.90669 -5.56,2.72 -1.33334,1.813353 -2.00001,4.333351 -2,7.56 -1e-5,3.173344 0.63999,5.653342 1.92,7.44 1.30665,1.78667 3.11999,2.68 5.44,2.68 1.86665,0 3.35998,-0.50666 4.48,-1.52 1.11998,-1.013327 1.77331,-2.453325 1.96,-4.32 l 5.84,0 c -0.1867,3.33334 -1.40003,5.98667 -3.64,7.96 -2.24002,1.94667 -5.17335,2.92 -8.8,2.92 -4.05335,0 -7.26668,-1.36 -9.64,-4.08 -2.37334,-2.74666 -3.56,-6.466657 -3.56,-11.16 0,-4.719981 1.2,-8.453311 3.6,-11.2 2.39999,-2.746638 5.65332,-4.11997 9.76,-4.12 3.43998,3e-5 6.25331,0.920029 8.44,2.76 2.21331,1.840025 3.4533,4.373356 3.72,7.6 l -5.72,0"
           inkscape:connector-curvature="0" />
        <path
           id="path8271"
           style="font-weight:600;line-height:100%;letter-spacing:-1.45000005px;fill:#ffffff;fill-opacity:1;stroke:#ffffff;stroke-width:1.47922456;stroke-opacity:1;font-family:FreeSans;-inkscape-font-specification:FreeSans Semi-Bold"
           d="m -700.44687,96.70875 0,9.76 -6,0 0,-29.16 6,0 0,12.8 11.4,-12.8 7.08,0 -11.64,12.56 12.88,16.6 -7.16,0 -9.56,-12.88 -3,3.12"
           inkscape:connector-curvature="0" />
        <path
           id="path8273"
           style="font-weight:600;line-height:100%;letter-spacing:-1.45000005px;fill:#ffffff;fill-opacity:1;stroke:#ffffff;stroke-width:1.47922456;stroke-opacity:1;font-family:FreeSans;-inkscape-font-specification:FreeSans Semi-Bold"
           d="m -672.75625,93.90875 0,7.56 15.8,0 0,5 -21.8,0 0,-29.16 21.08,0 0,5 -15.08,0 0,6.6 13.96,0 0,5 -13.96,0"
           inkscape:connector-curvature="0" />
        <path
           id="path8275"
           style="font-weight:600;line-height:100%;letter-spacing:-1.45000005px;fill:#ffffff;fill-opacity:1;stroke:#ffffff;stroke-width:1.47922456;stroke-opacity:1;font-family:FreeSans;-inkscape-font-specification:FreeSans Semi-Bold"
           d="m -637.12375,101.46875 c -2e-5,-0.79999 0.0133,-1.42666 0.04,-1.88 0.0267,-0.453326 0.04,-0.853326 0.04,-1.2 -2e-5,-1.226657 -0.29335,-2.106656 -0.88,-2.64 -0.58669,-0.559989 -1.53335,-0.839988 -2.84,-0.84 l -6.88,0 0,11.56 -6,0 0,-29.16 15.64,0 c 1.49331,2.9e-5 2.77331,0.253362 3.84,0.76 1.09331,0.506695 1.90664,1.173361 2.44,2 0.55997,0.826692 0.95997,1.666691 1.2,2.52 0.23997,0.82669 0.35997,1.693356 0.36,2.6 -3e-5,3.520018 -1.64003,5.920015 -4.92,7.2 0.71998,0.293347 1.25331,0.533347 1.6,0.72 0.34664,0.160013 0.69331,0.440013 1.04,0.84 0.37331,0.400012 0.61331,0.760012 0.72,1.08 0.13331,0.320011 0.25331,0.906677 0.36,1.76 0.13331,0.853342 0.21331,1.693341 0.24,2.52 0.0266,0.82667 0.0533,2.05334 0.08,3.68 -3e-5,1.12 0.42664,1.92 1.28,2.4 l 0,1.08 -6.44,0 c -0.37335,-0.69333 -0.62669,-1.36 -0.76,-2 -0.10669,-0.64 -0.16002,-1.64 -0.16,-3 m 0.96,-15.44 c -2e-5,-1.493311 -0.34669,-2.479977 -1.04,-2.96 -0.69335,-0.506643 -1.76002,-0.759976 -3.2,-0.76 l -7.24,0 0,7.6 7.24,0 c 1.41332,1.7e-5 2.46665,-0.253317 3.16,-0.76 0.71998,-0.506649 1.07998,-1.546648 1.08,-3.12"
           inkscape:connector-curvature="0" />
        <path
           id="path8277"
           style="font-weight:600;line-height:100%;letter-spacing:-1.45000005px;fill:#ffffff;fill-opacity:1;stroke:#ffffff;stroke-width:1.47922456;stroke-opacity:1;font-family:FreeSans;-inkscape-font-specification:FreeSans Semi-Bold"
           d="m -604.7875,86.18875 -5.6,0 c -0.21335,-3.039977 -2.25335,-4.559975 -6.12,-4.56 -1.54667,2.5e-5 -2.77334,0.333358 -3.68,1 -0.90667,0.640023 -1.36,1.506689 -1.36,2.6 0,1.066687 0.38666,1.866686 1.16,2.4 0.77333,0.506685 2.22666,0.973351 4.36,1.4 l 4.56,0.88 c 2.69332,0.533349 4.65331,1.440015 5.88,2.72 1.22664,1.253346 1.83998,3.026677 1.84,5.32 -2e-5,2.96001 -1.05335,5.28 -3.16,6.96 -2.10668,1.65333 -5.04001,2.48 -8.8,2.48 -3.73334,0 -6.64,-0.82667 -8.72,-2.48 -2.05333,-1.65333 -3.17333,-4.03999 -3.36,-7.16 l 5.84,0 c 0.10666,1.57334 0.71999,2.77334 1.84,3.6 1.11999,0.82667 2.69332,1.24 4.72,1.24 1.81332,0 3.23999,-0.34666 4.28,-1.04 1.06665,-0.69333 1.59998,-1.653327 1.6,-2.88 -2e-5,-1.173324 -0.41335,-2.07999 -1.24,-2.72 -0.82668,-0.639989 -2.24001,-1.146655 -4.24,-1.52 l -4.08,-0.8 c -2.96,-0.559987 -5.06667,-1.439986 -6.32,-2.64 -1.25333,-1.199983 -1.88,-2.933315 -1.88,-5.2 0,-2.85331 0.96,-5.053308 2.88,-6.6 1.94666,-1.573304 4.66666,-2.35997 8.16,-2.36 1.01332,3e-5 1.98665,0.0667 2.92,0.2 0.95999,0.133363 1.97332,0.413362 3.04,0.84 1.06665,0.400028 1.98665,0.933361 2.76,1.6 0.77331,0.640026 1.41331,1.546692 1.92,2.72 0.53331,1.14669 0.79998,2.480022 0.8,4"
           inkscape:connector-curvature="0" />
        <path
           id="path8279"
           style="font-weight:600;line-height:100%;letter-spacing:-1.45000005px;fill:#ffffff;fill-opacity:1;stroke:#ffffff;stroke-width:1.47922456;stroke-opacity:1;font-family:FreeSans;-inkscape-font-specification:FreeSans Semi-Bold"
           d="m -572.88813,91.54875 4.52,0 0,0.64 c -0.0534,1.546679 -0.32003,3.066678 -0.8,4.56 -0.48003,1.466675 -1.12002,2.65334 -1.92,3.56 l 4.92,6.16 -6.44,0 -1.84,-2.24 c -1.60002,1.2 -2.96002,2.02667 -4.08,2.48 -1.12002,0.45333 -2.36001,0.68 -3.72,0.68 -2.85334,0 -5.14667,-0.78667 -6.88,-2.36 -1.73334,-1.6 -2.6,-3.69333 -2.6,-6.28 0,-1.893324 0.45333,-3.439989 1.36,-4.64 0.93333,-1.226653 2.57333,-2.453319 4.92,-3.68 -0.24001,-0.319984 -0.40001,-0.519983 -0.48,-0.6 l -1.12,-1.36 c -1.12001,-1.333314 -1.68001,-2.746646 -1.68,-4.24 -1e-5,-1.893309 0.71999,-3.479974 2.16,-4.76 1.46666,-1.279972 3.26665,-1.919971 5.4,-1.92 2.13332,2.9e-5 3.85332,0.573362 5.16,1.72 1.30665,1.120026 1.95998,2.613358 1.96,4.48 -2e-5,1.440021 -0.33335,2.666687 -1,3.68 -0.66669,1.013351 -1.89335,2.13335 -3.68,3.36 l 4.64,5.76 c 0.79998,-1.519989 1.19998,-3.05332 1.2,-4.6 l 0,-0.4 m -9.92,2.16 -1.88,1.16 c -1.14668,0.773344 -1.72001,1.84001 -1.72,3.2 -10e-6,1.200007 0.42666,2.28001 1.28,3.24 0.87999,0.96 1.86665,1.44 2.96,1.44 1.27999,0 2.87998,-0.73333 4.8,-2.2 l -5.44,-6.84 m 1.56,-6.04 c 1.59998,-0.87998 2.39998,-2.026646 2.4,-3.44 -2e-5,-0.746644 -0.20002,-1.319976 -0.6,-1.72 -0.40002,-0.399976 -0.96001,-0.599975 -1.68,-0.6 -0.66668,2.5e-5 -1.22668,0.186691 -1.68,0.56 -0.42668,0.34669 -0.64001,0.800023 -0.64,1.36 -10e-6,0.506689 0.10665,0.960022 0.32,1.36 0.23999,0.373354 0.86665,1.20002 1.88,2.48"
           inkscape:connector-curvature="0" />
        <path
           id="path8281"
           style="font-weight:600;line-height:100%;letter-spacing:1.13px;fill:#ffffff;fill-opacity:1;stroke:#ffffff;stroke-width:1.47922456;stroke-opacity:1;font-family:FreeSans;-inkscape-font-specification:FreeSans Semi-Bold"
           d="m -733.8425,123.74875 0,22.72 -6,0 0,-29.16 8.96,0 5.28,23.2 5.12,-23.2 9.04,0 0,29.16 -6,0 0,-22.72 -5.16,22.72 -6,0 -5.24,-22.72"
           inkscape:connector-curvature="0" />
        <path
           id="path8283"
           style="font-weight:600;line-height:100%;letter-spacing:1.13px;fill:#ffffff;fill-opacity:1;stroke:#ffffff;stroke-width:1.47922456;stroke-opacity:1;font-family:FreeSans;-inkscape-font-specification:FreeSans Semi-Bold"
           d="m -687.74687,140.58875 -10.92,0 -1.96,5.88 -6.12,0 10.36,-29.16 6.64,0 10.08,29.16 -6.16,0 -1.92,-5.88 m -1.64,-5 -3.8,-11.4 -3.8,11.4 7.6,0"
           inkscape:connector-curvature="0" />
        <path
           id="path8285"
           style="font-weight:600;line-height:100%;letter-spacing:1.13px;fill:#ffffff;fill-opacity:1;stroke:#ffffff;stroke-width:1.47922456;stroke-opacity:1;font-family:FreeSans;-inkscape-font-specification:FreeSans Semi-Bold"
           d="m -668.92625,136.70875 0,9.76 -6,0 0,-29.16 6,0 0,12.8 11.4,-12.8 7.08,0 -11.64,12.56 12.88,16.6 -7.16,0 -9.56,-12.88 -3,3.12"
           inkscape:connector-curvature="0" />
        <path
           id="path8287"
           style="font-weight:600;line-height:100%;letter-spacing:1.13px;fill:#ffffff;fill-opacity:1;stroke:#ffffff;stroke-width:1.47922456;stroke-opacity:1;font-family:FreeSans;-inkscape-font-specification:FreeSans Semi-Bold"
           d="m -638.65562,133.90875 0,7.56 15.8,0 0,5 -21.8,0 0,-29.16 21.08,0 0,5 -15.08,0 0,6.6 13.96,0 0,5 -13.96,0"
           inkscape:connector-curvature="0" />
        <path
           id="path8289"
           style="font-weight:600;line-height:100%;letter-spacing:1.13px;fill:#ffffff;fill-opacity:1;stroke:#ffffff;stroke-width:1.47922456;stroke-opacity:1;font-family:FreeSans;-inkscape-font-specification:FreeSans Semi-Bold"
           d="m -600.44313,141.46875 c -2e-5,-0.79999 0.0133,-1.42666 0.04,-1.88 0.0267,-0.45333 0.04,-0.85333 0.04,-1.2 -2e-5,-1.22666 -0.29335,-2.10666 -0.88,-2.64 -0.58669,-0.55999 -1.53335,-0.83999 -2.84,-0.84 l -6.88,0 0,11.56 -6,0 0,-29.16 15.64,0 c 1.49331,3e-5 2.77331,0.25336 3.84,0.76 1.09331,0.50669 1.90664,1.17336 2.44,2 0.55997,0.82669 0.95997,1.66669 1.2,2.52 0.23997,0.82669 0.35997,1.69336 0.36,2.6 -3e-5,3.52002 -1.64003,5.92002 -4.92,7.2 0.71998,0.29335 1.25331,0.53335 1.6,0.72 0.34664,0.16001 0.69331,0.44001 1.04,0.84 0.37331,0.40001 0.61331,0.76001 0.72,1.08 0.13331,0.32001 0.25331,0.90668 0.36,1.76 0.13331,0.85334 0.21331,1.69334 0.24,2.52 0.0266,0.82667 0.0533,2.05334 0.08,3.68 -3e-5,1.12 0.42664,1.92 1.28,2.4 l 0,1.08 -6.44,0 c -0.37336,-0.69333 -0.62669,-1.36 -0.76,-2 -0.10669,-0.64 -0.16002,-1.64 -0.16,-3 m 0.96,-15.44 c -2e-5,-1.49331 -0.34669,-2.47998 -1.04,-2.96 -0.69335,-0.50664 -1.76002,-0.75998 -3.2,-0.76 l -7.24,0 0,7.6 7.24,0 c 1.41331,2e-5 2.46665,-0.25332 3.16,-0.76 0.71998,-0.50665 1.07998,-1.54665 1.08,-3.12"
           inkscape:connector-curvature="0" />
        <path
           id="path8291"
           style="font-weight:600;line-height:100%;letter-spacing:1.13px;fill:#ffffff;fill-opacity:1;stroke:#ffffff;stroke-width:1.47922456;stroke-opacity:1;font-family:FreeSans;-inkscape-font-specification:FreeSans Semi-Bold"
           d="m -565.52688,126.18875 -5.6,0 c -0.21335,-3.03998 -2.25335,-4.55998 -6.12,-4.56 -1.54667,2e-5 -2.77334,0.33336 -3.68,1 -0.90667,0.64002 -1.36,1.50669 -1.36,2.6 0,1.06669 0.38666,1.86669 1.16,2.4 0.77333,0.50668 2.22666,0.97335 4.36,1.4 l 4.56,0.88 c 2.69332,0.53335 4.65331,1.44002 5.88,2.72 1.22664,1.25335 1.83998,3.02668 1.84,5.32 -2e-5,2.96001 -1.05335,5.28 -3.16,6.96 -2.10668,1.65333 -5.04001,2.48 -8.8,2.48 -3.73334,0 -6.64,-0.82667 -8.72,-2.48 -2.05333,-1.65333 -3.17333,-4.03999 -3.36,-7.16 l 5.84,0 c 0.10666,1.57334 0.72,2.77334 1.84,3.6 1.11999,0.82667 2.69332,1.24 4.72,1.24 1.81332,0 3.23999,-0.34666 4.28,-1.04 1.06665,-0.69333 1.59998,-1.65333 1.6,-2.88 -2e-5,-1.17332 -0.41335,-2.07999 -1.24,-2.72 -0.82668,-0.63999 -2.24001,-1.14666 -4.24,-1.52 l -4.08,-0.8 c -2.96,-0.55999 -5.06667,-1.43999 -6.32,-2.64 -1.25333,-1.19998 -1.88,-2.93331 -1.88,-5.2 0,-2.85331 0.96,-5.05331 2.88,-6.6 1.94666,-1.5733 4.66666,-2.35997 8.16,-2.36 1.01332,3e-5 1.98665,0.0667 2.92,0.2 0.95999,0.13336 1.97332,0.41336 3.04,0.84 1.06665,0.40003 1.98665,0.93336 2.76,1.6 0.77331,0.64003 1.41331,1.54669 1.92,2.72 0.53331,1.14669 0.79998,2.48002 0.8,4"
           inkscape:connector-curvature="0" />
      </g>
      <g
         transform="translate(1317.0197,-329.52759)"
         id="g8293"
         style="fill:#ffffff">
        <path
           style="font-size:medium;font-style:normal;font-variant:normal;font-weight:normal;font-stretch:normal;text-indent:0;text-align:start;text-decoration:none;line-height:normal;letter-spacing:normal;word-spacing:normal;text-transform:none;direction:ltr;block-progression:tb;writing-mode:lr-tb;text-anchor:start;baseline-shift:baseline;color:#000000;fill:#ffffff;fill-opacity:1;stroke:none;stroke-width:5.99881887;marker:none;visibility:visible;display:inline;overflow:visible;enable-background:accumulate;font-family:Sans;-inkscape-font-specification:Sans"
           d="m 209.58489,234.39245 0,3 0,35.4375 6,0 0,-32.4375 191.90625,0 0,-6 -194.90625,0 -3,0 z"
           id="path8295"
           inkscape:connector-curvature="0" />
        <path
           style="font-size:medium;font-style:normal;font-variant:normal;font-weight:normal;font-stretch:normal;text-indent:0;text-align:start;text-decoration:none;line-height:normal;letter-spacing:normal;word-spacing:normal;text-transform:none;direction:ltr;block-progression:tb;writing-mode:lr-tb;text-anchor:start;baseline-shift:baseline;color:#000000;fill:#ffffff;fill-opacity:1;fill-rule:evenodd;stroke:none;stroke-width:3;marker:none;visibility:visible;display:inline;overflow:visible;enable-background:accumulate;font-family:Sans;-inkscape-font-specification:Sans"
           d="m 205.3125,259.78125 c -0.93587,0.0559 -1.64609,1.15506 -1.3125,2.03125 l 7.21875,19.65625 c 0.21159,0.56958 0.79864,0.97774 1.40625,0.97774 0.60761,0 1.19466,-0.40816 1.40625,-0.97774 L 221.25,261.8125 c 0.22837,-0.59846 0.0197,-1.33523 -0.48849,-1.72511 -0.50823,-0.38987 -1.2739,-0.40051 -1.79276,-0.0249 -3.83723,2.75406 -8.94689,2.75255 -12.6875,0 -0.27801,-0.20077 -0.62644,-0.30193 -0.96875,-0.28125 z"
           id="path8297"
           inkscape:connector-curvature="0"
           sodipodi:nodetypes="cccsccsccc" />
      </g>
      <g
         transform="translate(1317.0197,-329.52759)"
         id="g8299"
         style="fill:#ffffff;stroke:none">
        <path
           style="font-size:medium;font-style:normal;font-variant:normal;font-weight:normal;font-stretch:normal;text-indent:0;text-align:start;text-decoration:none;line-height:normal;letter-spacing:normal;word-spacing:normal;text-transform:none;direction:ltr;block-progression:tb;writing-mode:lr-tb;text-anchor:start;baseline-shift:baseline;color:#000000;fill:#ffffff;fill-opacity:1;stroke:none;stroke-width:5.99881887;marker:none;visibility:visible;display:inline;overflow:visible;enable-background:accumulate;font-family:Sans;-inkscape-font-specification:Sans"
           d="m 510.78125,467.71875 0,32.4375 -191.875,0 0,6 194.875,0 3,0 0,-3 0,-35.4375 -6,0 z"
           id="path8301"
           inkscape:connector-curvature="0" />
        <path
           style="font-size:medium;font-style:normal;font-variant:normal;font-weight:normal;font-stretch:normal;text-indent:0;text-align:start;text-decoration:none;line-height:normal;letter-spacing:normal;word-spacing:normal;text-transform:none;direction:ltr;block-progression:tb;writing-mode:lr-tb;text-anchor:start;baseline-shift:baseline;color:#000000;fill:#ffffff;fill-opacity:1;fill-rule:evenodd;stroke:none;stroke-width:3;marker:none;visibility:visible;display:inline;overflow:visible;enable-background:accumulate;font-family:Sans;-inkscape-font-specification:Sans"
           d="m 513.78125,458.09375 c -0.6232,-0.01 -1.22977,0.41236 -1.4375,1 L 505.125,478.75 c -0.22837,0.59846 -0.0197,1.33523 0.48849,1.72511 0.50823,0.38987 1.2739,0.40051 1.79276,0.0249 3.83722,-2.75405 8.94689,-2.78379 12.6875,-0.0313 0.51485,0.36288 1.26387,0.35101 1.76695,-0.028 0.50309,-0.37902 0.7211,-1.09571 0.5143,-1.69068 l -7.21875,-19.65625 c -0.20067,-0.56812 -0.77269,-0.98413 -1.375,-1 z"
           id="path8303"
           inkscape:connector-curvature="0"
           sodipodi:nodetypes="cccsccsccc" />
      </g>
    </g>
  </g>
  <g
     inkscape:label="Gear48"
     transform="matrix(0.83372441,0,0,0.83372441,-1033.2653,498.57684)"
     id="g6220" />
</svg>
