<?xml version="1.0" encoding="UTF-8" standalone="no"?>
<!-- Generator: Adobe Illustrator 12.0.0, SVG Export Plug-In . SVG Version: 6.00 Build 51448)  -->

<svg
   xmlns:dc="http://purl.org/dc/elements/1.1/"
   xmlns:cc="http://creativecommons.org/ns#"
   xmlns:rdf="http://www.w3.org/1999/02/22-rdf-syntax-ns#"
   xmlns:svg="http://www.w3.org/2000/svg"
   xmlns="http://www.w3.org/2000/svg"
   xmlns:sodipodi="http://sodipodi.sourceforge.net/DTD/sodipodi-0.dtd"
   xmlns:inkscape="http://www.inkscape.org/namespaces/inkscape"
   version="1.1"
   id="Layer_1"
   width="744.09448"
   height="1052.3622"
   viewBox="0 0 744.09448 1052.3622"
   overflow="visible"
   enable-background="new 0 0 360 428.986"
   xml:space="preserve"
   inkscape:version="0.48.4 r9939"
   sodipodi:docname="Donkey_cartoon_04.svg"
   style="overflow:visible"><metadata
   id="metadata237"><rdf:RDF><cc:Work
       rdf:about=""><dc:format>image/svg+xml</dc:format><dc:type
         rdf:resource="http://purl.org/dc/dcmitype/StillImage" /><dc:title></dc:title></cc:Work></rdf:RDF></metadata><defs
   id="defs235" /><sodipodi:namedview
   pagecolor="#ffffff"
   bordercolor="#666666"
   borderopacity="1"
   objecttolerance="10"
   gridtolerance="10"
   guidetolerance="10"
   inkscape:pageopacity="0"
   inkscape:pageshadow="2"
   inkscape:window-width="1280"
   inkscape:window-height="926"
   id="namedview233"
   showgrid="false"
   inkscape:zoom="0.55013451"
   inkscape:cx="180"
   inkscape:cy="359.91198"
   inkscape:window-x="-5"
   inkscape:window-y="-5"
   inkscape:window-maximized="1"
   inkscape:current-layer="Layer_1" />
<g
   id="g3"
   transform="matrix(2.117351,0,0,2.5254584,-7.5578617,-17.80182)">
	<path
   d="m 248.458,408.252 c 0.001,-0.005 0.002,-0.011 0.002,-0.016 0,0.005 -0.002,0.011 -0.002,0.016 4.478,0.921 10.522,2.236 16.921,3.243 -7.89,-1.629 -16.862,-3.46 -16.921,-3.243 z"
   id="path5"
   inkscape:connector-curvature="0"
   style="fill:none" />
	<path
   d="m 129.041,406.682 c 2.417,0.239 7.234,0.715 11.292,0.795 -0.102,-0.086 -0.208,-0.172 -0.303,-0.266 -3.88,0.169 -8.309,-0.266 -10.989,-0.529 z"
   id="path7"
   inkscape:connector-curvature="0"
   style="fill:none" />
	<path
   d="m 243.035,387.013 c -0.739,-0.58 -1.52,-1.105 -2.334,-1.586 0.767,0.606 1.542,1.151 2.334,1.586 z"
   id="path9"
   inkscape:connector-curvature="0"
   style="fill:none" />
	<path
   d="m 116.01,389.568 c -0.104,0.293 -0.209,0.574 -0.313,0.873 -4.539,13.009 -0.594,14.912 12.507,16.157 -14.189,-1.35 -16.69,-3.929 -12.194,-17.03 z"
   id="path11"
   inkscape:connector-curvature="0"
   style="fill:none" />
	<path
   d="m 123.668,375.003 c -0.417,0.513 -0.81,1.03 -1.191,1.551 0.947,-0.834 2.063,-1.492 3.406,-1.954 -0.89,-0.131 -1.733,-0.188 -2.215,0.403 z"
   id="path13"
   inkscape:connector-curvature="0"
   style="fill:none" />
	<path
   d="m 174.167,98.744 c 0.192,-0.271 0.373,-0.552 0.563,-0.826 -1.22,1.705 -2.554,3.313 -3.961,4.856 1.27,-1.319 2.429,-2.658 3.398,-4.03 z"
   id="path15"
   inkscape:connector-curvature="0"
   style="fill:none" />
	<path
   d="m 257.425,379.858 c -0.098,0.178 -0.197,0.362 -0.294,0.537 0.239,-0.134 0.487,-0.263 0.741,-0.384 -0.157,-0.042 -0.298,-0.101 -0.447,-0.153 z"
   id="path17"
   inkscape:connector-curvature="0"
   style="fill:none" />
	<path
   d="m 292.341,381.008 c 0.051,0.032 0.103,0.064 0.151,0.097 -0.048,-0.036 -0.101,-0.062 -0.151,-0.097 z"
   id="path19"
   inkscape:connector-curvature="0"
   style="fill:none" />
	<path
   d="m 228.142,382.804 c -1.903,-0.73 -2.115,-0.926 -3.426,0.649 1.138,-0.548 2.285,-0.724 3.426,-0.649 z"
   id="path21"
   inkscape:connector-curvature="0"
   style="fill:none" />
	<path
   d="m 281.212,378.382 c 4.638,0.269 7.907,0.887 10.301,2.135 -2.417,-1.327 -5.7,-1.953 -10.301,-2.135 z"
   id="path23"
   inkscape:connector-curvature="0"
   style="fill:none" />
	<path
   d="m 194.124,40.761 c -0.004,0.395 -0.03,0.791 -0.04,1.187 0.01,-0.396 0.036,-0.792 0.04,-1.187 z"
   id="path25"
   inkscape:connector-curvature="0"
   style="fill:none" />
	<path
   d="m 89.402,221.051 c -0.293,0.174 -0.586,0.352 -0.878,0.537 0.291,-0.183 0.583,-0.365 0.878,-0.537 z"
   id="path27"
   inkscape:connector-curvature="0"
   style="fill:none" />
	<path
   d="m 193.635,49.002 c -0.025,0.24 -0.061,0.479 -0.09,0.719 0.029,-0.24 0.064,-0.479 0.09,-0.719 z"
   id="path29"
   inkscape:connector-curvature="0"
   style="fill:none" />
	<path
   d="m 239.143,388.153 c -2.019,-1.629 -4.31,-3.073 -6.247,-3.833 2.183,1.149 4.254,2.689 6.096,3.75 0.049,0.03 0.103,0.054 0.151,0.083 z"
   id="path31"
   inkscape:connector-curvature="0"
   style="fill:none" />
	<path
   d="m 193.098,53.159 c -0.009,0.053 -0.021,0.107 -0.029,0.16 0.008,-0.053 0.02,-0.107 0.029,-0.16 z"
   id="path33"
   inkscape:connector-curvature="0"
   style="fill:none" />
	<path
   d="m 193.978,44.873 c -0.021,0.365 -0.062,0.728 -0.087,1.092 0.025,-0.365 0.065,-0.728 0.087,-1.092 z"
   id="path35"
   inkscape:connector-curvature="0"
   style="fill:none" />
	<path
   d="m 77.447,160.126 c -0.332,-0.625 -0.668,-1.232 -1.01,-1.82 0.341,0.586 0.677,1.197 1.01,1.82 z"
   id="path37"
   inkscape:connector-curvature="0"
   style="fill:none" />
	<path
   d="m 78.678,162.55 c -0.358,-0.746 -0.722,-1.468 -1.091,-2.169 0.369,0.701 0.733,1.423 1.091,2.169 z"
   id="path39"
   inkscape:connector-curvature="0"
   style="fill:none" />
	<path
   d="m 67.484,94.807 c -1.138,-3.782 -3.919,-6.965 -6.144,-10.336 1.606,3.845 3.633,7.338 6.144,10.336 z"
   id="path41"
   inkscape:connector-curvature="0"
   style="fill:none" />
	<path
   d="m 74.049,32.821 c 0.088,0.172 0.17,0.349 0.258,0.522 -0.083,-0.175 -0.174,-0.347 -0.258,-0.522 z"
   id="path43"
   inkscape:connector-curvature="0"
   style="fill:none" />
	<path
   d="m 300.229,406.519 c 1.072,-2.339 0.02,-5.477 -1.221,-11.423 0.793,3.793 1.76,7.903 1.221,11.423 z"
   id="path45"
   inkscape:connector-curvature="0"
   style="fill:none" />
	<path
   d="m 297.874,196.063 c -17.636,-8.88 -38.801,-9.181 -56.076,5.49 5.521,-4.687 12.044,-7.637 19.041,-9.382 13.187,-3.283 25.875,-1.439 37.035,3.892 z"
   id="path47"
   inkscape:connector-curvature="0"
   style="fill:none" />
	<path
   d="m 197.705,391.142 c -0.176,-0.118 -0.354,-0.233 -0.529,-0.352 0.175,0.118 0.355,0.231 0.529,0.352 z"
   id="path49"
   inkscape:connector-curvature="0"
   style="fill:none" />
	<path
   d="m 117.392,321.527 c -1.899,-2.22 -3.939,-4.395 -5.831,-6.711 1.824,2.366 3.762,4.613 5.831,6.711 z"
   id="path51"
   inkscape:connector-curvature="0"
   style="fill:none" />
	<path
   d="m 196.067,205.285 c 2.726,-0.035 5.581,-0.209 8.478,0.462 -2.078,-0.704 -3.997,-1.069 -5.893,-1.152 -0.979,0.075 -1.994,0.209 -2.744,0.303 0.057,0.126 0.104,0.258 0.159,0.387 z"
   id="path53"
   inkscape:connector-curvature="0"
   style="fill:none" />
	<path
   d="m 210.967,203.368 c -1.81,0.247 -3.29,0.864 -4.064,2.166 1.1,-1.224 2.506,-1.866 4.064,-2.166 z"
   id="path55"
   inkscape:connector-curvature="0"
   style="fill:none" />
	<path
   d="m 341.137,342.043 c 0.223,-0.387 0.43,-0.779 0.62,-1.182 -0.183,0.344 -0.357,0.695 -0.545,1.031 -0.024,0.044 -0.051,0.102 -0.075,0.151 z"
   id="path57"
   inkscape:connector-curvature="0"
   style="fill:none" />
	<path
   d="m 160.657,383.303 c -0.491,0.132 -0.981,0.269 -1.467,0.425 0.063,-0.36 0.122,-0.723 0.183,-1.082 -0.563,0.212 -1.079,0.488 -1.545,0.821 -0.129,0.405 -0.254,0.808 -0.381,1.202 0.18,-0.016 0.36,-0.026 0.545,-0.064 0.998,-0.209 1.827,-0.741 2.665,-1.302 z"
   id="path59"
   inkscape:connector-curvature="0"
   style="fill:none" />
	<path
   d="m 200.73,393.335 c -0.667,-0.516 -1.345,-1.013 -2.029,-1.495 0.685,0.488 1.366,0.982 2.029,1.495 z"
   id="path61"
   inkscape:connector-curvature="0"
   style="fill:none" />
	<path
   d="m 199.316,385.287 c 0.249,2.493 0.743,5.133 1.414,8.048 -0.609,-2.647 -1.082,-5.34 -1.414,-8.048 z"
   id="path63"
   inkscape:connector-curvature="0"
   style="fill:none" />
	<path
   d="m 15.642,211.273 c -0.67,0.247 -1.503,-0.013 -2.544,-0.985 -0.556,-0.521 -0.97,-1.144 -1.293,-1.82 0.002,0.048 0.004,0.097 0.007,0.145 1.85,5.05 3.041,4.905 3.83,2.66 z"
   id="path65"
   inkscape:connector-curvature="0"
   style="fill:none" />
	<path
   d="m 11.812,208.613 c -0.211,-0.58 -0.428,-1.2 -0.658,-1.919 -0.109,-0.343 -0.177,-0.708 -0.224,-1.084 -0.279,4.54 0.14,8.666 1.411,12.048 6.013,16.008 18.841,21.479 33.602,21.205 -1.691,-0.052 -3.266,-0.169 -4.662,-0.354 -20.363,-2.696 -28.56,-15.088 -29.469,-29.896 z"
   id="path67"
   inkscape:connector-curvature="0"
   style="fill:none" />
	<path
   d="m 55.696,210.563 c -0.291,-2.999 -1.099,-5.981 -2.909,-8.027 1.668,2.561 2.755,6.274 2.855,7.825 0.022,0.067 0.034,0.134 0.054,0.202 z"
   id="path69"
   inkscape:connector-curvature="0"
   style="fill:none" />
	<path
   d="m 48.466,200.155 c -0.783,0.153 -0.433,1.361 0.116,2.759 -0.131,-1.321 -0.214,-2.389 -0.116,-2.759 z"
   id="path71"
   inkscape:connector-curvature="0"
   style="fill:none" />
	<path
   d="m 48.806,216.793 c 0.382,2.935 2.076,4.359 6.836,0.902 0.072,-0.779 0.132,-1.656 0.167,-2.583 -1.153,4.078 -5.637,5.557 -7.003,1.681 z"
   id="path73"
   inkscape:connector-curvature="0"
   style="fill:none" />
	<path
   d="m 11.397,201.218 c 0.03,-0.105 0.061,-0.212 0.094,-0.317 0.197,-0.824 0.444,-1.646 0.74,-2.443 0.278,-2.051 0.667,-4.113 1.15,-6.174 -0.882,3.047 -1.554,6.048 -1.984,8.934 z"
   id="path75"
   inkscape:connector-curvature="0"
   style="fill:none" />
	<path
   d="m 83.465,222.331 c 0.002,-0.011 0.004,-0.021 0.007,-0.032 -0.008,0.027 -0.017,0.057 -0.025,0.083 0.005,-0.016 0.013,-0.032 0.018,-0.051 z"
   id="path77"
   inkscape:connector-curvature="0"
   style="fill:none" />
	<path
   d="m 80.435,227.851 c 1.11,-1.268 1.999,-2.706 2.61,-4.327 -0.633,1.58 -1.512,3.025 -2.61,4.327 z"
   id="path79"
   inkscape:connector-curvature="0"
   style="fill:none" />
	<path
   d="m 312.453,356.885 c -0.212,0.317 -0.405,0.583 -0.605,0.867 0.254,-0.284 0.48,-0.574 0.605,-0.867 z"
   id="path81"
   inkscape:connector-curvature="0"
   style="fill:none" />
	<path
   d="m 17.601,191.889 c 0.111,0.803 0.237,2.054 0.336,3.543 0.63,-2.568 0.374,-3.589 -0.336,-3.543 z"
   id="path83"
   inkscape:connector-curvature="0"
   style="fill:none" />
	<path
   d="m 180.831,120.023 c -0.314,-1.24 -0.741,-2.448 -1.256,-3.621 0.434,1.269 0.85,2.468 1.256,3.621 z"
   id="path85"
   inkscape:connector-curvature="0"
   style="fill:none" />
	<path
   d="m 89.769,220.844 c 0.435,-0.247 0.873,-0.483 1.313,-0.709 0.03,-0.026 0.06,-0.056 0.09,-0.086 -0.472,0.247 -0.937,0.526 -1.403,0.795 z"
   id="path87"
   inkscape:connector-curvature="0"
   style="fill:none" />
	<path
   d="m 185.614,198.195 c 0.189,0.502 0.365,1.009 0.558,1.509 0.545,1.42 1.813,1.976 3.395,2.118 -0.057,-0.019 -0.125,-0.03 -0.174,-0.051 -1.389,-0.61 -2.641,-1.874 -3.779,-3.576 z"
   id="path89"
   inkscape:connector-curvature="0"
   style="fill:none" />
	<path
   d="m 44.611,147.023 c 0.363,-0.158 0.726,-0.306 1.087,-0.443 11.936,-5.246 22.52,-2.335 30.718,11.693 C 68.09,143.969 57.299,140.9 44.611,147.023 z"
   id="path91"
   inkscape:connector-curvature="0"
   style="fill:none" />
	<path
   d="m 32.55,155.077 c 0.176,-2.537 0.574,-5.028 1.138,-7.475 -1.138,2.973 -2.197,6.042 -3.17,9.233 3.174,-2.813 6.291,-5.193 9.334,-7.114 0.09,-0.064 0.179,-0.131 0.269,-0.196 -2.46,1.544 -4.984,3.391 -7.571,5.552 z"
   id="path93"
   inkscape:connector-curvature="0"
   style="fill:none" />
	<path
   d="m 66.911,100.61 c -1.439,1.264 -2.836,2.538 -4.193,3.824 0.124,-0.108 0.248,-0.221 0.371,-0.33 1.533,-1.336 2.924,-2.316 3.822,-3.494 z"
   id="path95"
   inkscape:connector-curvature="0"
   style="fill:none" />
	<path
   d="m 176.651,117.635 c -1.364,-3.85 -2.512,-5.945 -3.788,-6.684 1.356,1.545 2.365,3.902 3.272,5.632 0.183,0.35 0.339,0.703 0.516,1.052 z"
   id="path97"
   inkscape:connector-curvature="0"
   style="fill:none" />
	<path
   d="m 312.016,332.609 c 0.201,-0.445 0.419,-0.875 0.653,-1.283 -0.234,0.408 -0.452,0.835 -0.653,1.283 z"
   id="path99"
   inkscape:connector-curvature="0"
   style="fill:none" />
	<path
   d="m 152.8,125.462 c 0.007,-1.202 0.139,-2.333 0.428,-3.379 -0.887,1.231 -0.665,1.366 -0.428,3.379 z"
   id="path101"
   inkscape:connector-curvature="0"
   style="fill:none" />
	<path
   d="m 204.767,201.054 c 1.768,-0.896 -1.425,-3.484 -2.198,-6.188 -0.003,0.11 -0.028,0.201 -0.021,0.317 0.129,2.236 3.073,3.151 2.219,5.871 z"
   id="path103"
   inkscape:connector-curvature="0"
   style="fill:none" />
	<path
   d="m 170.337,153.533 c 2.219,5.619 4.178,11.331 6.045,17.073 -0.442,-1.624 -0.864,-3.063 -1.278,-4.209 -1.557,-4.311 -3.023,-8.663 -4.767,-12.864 z"
   id="path105"
   inkscape:connector-curvature="0"
   style="fill:none" />
	<path
   d="m 109.956,69.914 c 8.59,-1.357 22.087,-5.307 28.811,1 -0.289,-0.888 -0.506,-1.957 -0.592,-3.301 -9.156,-1.699 -20.642,0.338 -28.85,2.045 0.166,0.188 0.367,0.298 0.631,0.256 z"
   id="path107"
   inkscape:connector-curvature="0"
   style="fill:none" />
	<path
   d="m 311.457,334.005 c 0.014,-0.04 0.032,-0.08 0.048,-0.12 -0.016,0.04 -0.034,0.077 -0.048,0.12 z"
   id="path109"
   inkscape:connector-curvature="0"
   style="fill:none" />
	<path
   d="m 73.75,32.223 c -0.954,-1.941 -1.975,-3.851 -3.099,-5.714 0.782,1.434 1.399,2.619 1.746,3.225 0.468,0.821 0.917,1.651 1.353,2.489 z"
   id="path111"
   inkscape:connector-curvature="0"
   style="fill:none" />
	<path
   d="m 200.795,201.301 c 1.82,0.143 2.979,0.089 3.66,-0.124 -0.922,-0.072 -2.208,-0.002 -3.66,0.124 z"
   id="path113"
   inkscape:connector-curvature="0"
   style="fill:none" />
	<path
   d="m 110.25,100.567 c 0.731,0.109 1.469,0.201 2.216,0.274 0.543,-0.144 1.118,-0.302 1.719,-0.474 -1.357,0.149 -2.672,0.213 -3.935,0.2 z"
   id="path115"
   inkscape:connector-curvature="0"
   style="fill:none" />
	<path
   d="m 191.278,37.188 c -6.751,1.5 -13.026,4.819 -18.7,9.135 0.691,-0.5 1.394,-1 2.11,-1.497 1.167,-0.812 11.509,-5.801 16.59,-7.638 z"
   id="path117"
   inkscape:connector-curvature="0"
   style="fill:none" />
	<path
   d="m 105.817,69.554 c -0.644,0.734 -1.372,1.901 -2.178,3.703 -0.881,1.967 -1.247,4.958 -1.894,7.444 0.847,-2.927 1.32,-6.621 2.577,-8.773 0.578,-0.99 1.07,-1.764 1.495,-2.374 z"
   id="path119"
   inkscape:connector-curvature="0"
   style="fill:none" />
	<path
   d="m 62.618,15.826 c -0.313,-0.338 -0.605,-0.686 -0.929,-1.02 -0.097,0.323 -0.191,0.663 -0.286,0.993 0.19,-0.05 0.385,-0.089 0.592,-0.092 0.199,-0.003 0.408,0.042 0.623,0.119 z"
   id="path121"
   inkscape:connector-curvature="0"
   style="fill:none" />
	<path
   d="m 310.974,335.517 c 0.04,-0.14 0.089,-0.273 0.132,-0.413 -0.043,0.139 -0.092,0.273 -0.132,0.413 z"
   id="path123"
   inkscape:connector-curvature="0"
   style="fill:none" />
	<path
   d="m 306.947,357.854 c 2.183,-6.312 2.115,-15.106 3.882,-21.782 -1.766,6.628 -1.805,15.439 -3.882,21.782 z"
   id="path125"
   inkscape:connector-curvature="0"
   style="fill:none" />
	<path
   d="m 293.125,368.136 c 5.731,-42.893 42.242,-72.98 40.259,-120.01 -0.094,-2.258 -0.348,-4.493 -0.729,-6.703 -1.67,-2.861 -2.866,-5.986 -3.501,-9.24 0.097,-0.668 -1.035,-2.644 0.071,-1.618 0.451,0.757 0.864,1.541 1.247,2.335 -5.419,-15.822 -17.76,-29.365 -32.599,-36.836 -11.16,-5.332 -23.848,-7.176 -37.035,-3.893 -6.997,1.745 -13.52,4.695 -19.041,9.382 19.31,0.357 -15.887,2.464 -20.155,2.266 -3.133,-0.142 -7.427,-0.891 -10.676,-0.451 -1.558,0.3 -2.964,0.942 -4.064,2.166 -0.17,0.285 -0.316,0.591 -0.414,0.945 -0.666,-0.282 -1.31,-0.518 -1.943,-0.732 -2.896,-0.671 -5.752,-0.497 -8.478,-0.462 9.271,21.105 -11.208,45.54 -24.239,59.933 0.165,-10.464 15.041,-16.777 13.281,-28.291 0.301,-1.603 0.688,-3.216 1.105,-4.835 -0.391,0.975 -0.802,1.922 -1.231,2.821 -7.922,16.582 -0.622,-4.843 0.595,-10.676 2.348,-11.262 -1.727,-17.111 -4.086,-26.708 -0.219,-0.894 -0.45,-1.788 -0.679,-2.682 -0.42,-1.095 -0.735,-2.212 -1.102,-3.323 -0.676,-2.526 -1.316,-5.06 -1.952,-7.597 -0.674,-2.228 -1.384,-4.445 -2.125,-6.657 -1.239,-1.479 -1.319,-2.8 -1.934,-4.473 -0.922,-2.024 1.282,2.728 1.836,4.18 -4.257,-12.649 -9.6,-24.985 -16.271,-36.426 0.722,15.317 -1.452,27.36 -7.019,42.023 -6.47,17.046 -13.754,26.659 -30.846,33.43 -9.684,3.839 -22.449,3.369 -30.917,8.521 -9.597,5.839 -5.57,9.658 -3.923,21.21 3.204,22.482 10.156,49.811 25.001,69.082 1.891,2.316 3.932,4.491 5.831,6.711 8.871,8.999 20.063,15.334 34.207,17.095 0.33,-12.705 -12.244,-23.939 -6.875,-37.206 0.073,-0.021 0.145,-0.049 0.218,-0.07 4.279,11.144 6.528,27.108 8.781,38.536 -0.008,-0.129 0.397,-0.69 0.468,-0.612 -1.938,13.24 1.067,13.787 8.441,23.419 6.862,8.964 2.505,13.28 -1.71,3.254 0.09,6.367 -1.474,12.386 -3.095,17.524 0.466,-0.333 0.982,-0.609 1.545,-0.821 -0.061,0.359 -0.12,0.722 -0.183,1.082 0.486,-0.156 0.976,-0.293 1.467,-0.425 0.958,-0.639 1.936,-1.305 3.176,-1.589 -0.121,-1.122 9.99,-0.126 14.762,0.91 6.628,1.436 12.935,4.373 18.582,8.166 0.176,0.118 0.354,0.233 0.529,0.352 0.336,0.23 0.666,0.462 0.996,0.698 0.685,0.482 1.362,0.979 2.029,1.495 -0.671,-2.915 -1.165,-5.555 -1.414,-8.048 -0.454,-3.681 -0.641,-7.391 -0.493,-11.076 -11.008,3.6 -1.597,-2.097 1.223,-5.211 5.656,-6.249 6.687,-9.248 8.278,-17.436 2.056,-10.566 6.188,-20.238 8.513,-30.593 1.576,-7.022 1.187,-16.614 4.014,-22.106 5.262,18.674 -7.244,36.475 -9.97,54.532 13.736,-5.388 33.76,-2.525 44.416,-13.91 3.411,-3.646 6.046,-10.875 6.873,-15.638 2.269,-13.057 0.81,-19.454 9.288,-31.097 6.551,-8.996 15.761,-17.567 18.788,-29.728 0.589,-2.368 0.893,-15.42 2.087,-15.313 6.066,0.531 -0.634,20.842 -1.906,23.704 -6.582,14.808 -22.429,23.642 -25.304,40.675 -2.104,12.47 -1.351,23.698 -5.94,35.339 3.421,1.339 3.284,22.042 1.044,26.96 -0.77,1.691 -1.549,3.173 -2.305,4.563 2.17,-1.157 4.391,-1.906 6.769,-2.692 8.516,-2.819 16.869,-3.162 23.586,-0.68 0.247,0.052 0.505,0.1 0.781,0.138 0.017,-0.014 2.236,0.319 0.236,0.268 1.903,0.806 3.666,1.848 5.24,3.144 0.15,-2.757 0.25,-5.529 0.402,-8.286 -1.707,6.093 -3.27,8.209 -1.811,-2.709 z M 163.341,148.17 c -0.947,-1.892 -0.881,-1.761 0,0 l 0,0 z m 6.063,13.1 c 1.226,2.846 2.407,5.71 3.516,8.601 -0.996,-2.024 -1.828,-4.097 -2.711,-6.169 -0.259,-0.813 -0.554,-1.613 -0.805,-2.432 z"
   id="path127"
   inkscape:connector-curvature="0"
   style="fill:#8499ae" />
	<path
   d="m 189.446,212.232 c -0.007,-0.063 -0.014,-0.124 -0.021,-0.186 0.009,0.062 0.014,0.124 0.021,0.186 z"
   id="path129"
   inkscape:connector-curvature="0"
   style="fill:#8499ae" />
	<path
   d="m 130.58,357.854 c 0.226,4.375 0.722,12.321 -1.449,16.074 0.034,-0.003 0.063,-0.008 0.097,-0.011 1.073,0.226 2.753,0.76 4.715,1.498 -0.215,-0.282 -0.287,-0.534 -0.185,-0.746 0.666,-1.404 12.15,3.06 13.846,3.782 7.487,3.194 9.07,8.534 9.538,-4.528 0.169,-4.726 0.185,-9.487 -1.259,-13.804 -1.399,-4.178 -5.938,-4.985 -4.932,-10.569 -5.68,-0.832 -12.331,-5.108 -17.673,-8.123 -1.898,-1.736 -5.045,-2.924 -7.27,-4.244 -1.739,7.417 1.686,9.012 3.744,13.733 1.281,2.943 7.67,12.567 0.828,6.938 z"
   id="path131"
   inkscape:connector-curvature="0"
   style="fill:#8499ae" />
	<path
   d="m 189.246,210.836 c -0.051,-0.309 -0.102,-0.62 -0.166,-0.929 0.065,0.306 0.113,0.62 0.166,0.929 z"
   id="path133"
   inkscape:connector-curvature="0"
   style="fill:#8499ae" />
	<path
   d="m 152.8,125.462 c -0.237,-2.013 -0.459,-2.148 0.428,-3.379 0.179,-0.645 0.397,-1.269 0.711,-1.843 3.358,-6.15 11.192,-11.607 16.829,-17.466 1.407,-1.544 2.741,-3.151 3.961,-4.856 9.181,-13.228 15.862,-28.607 18.338,-44.599 0.009,-0.053 0.021,-0.107 0.029,-0.16 0.174,-1.144 0.316,-2.29 0.447,-3.438 0.029,-0.24 0.064,-0.479 0.09,-0.719 0.107,-1.011 0.184,-2.024 0.256,-3.038 0.025,-0.365 0.065,-0.728 0.087,-1.092 0.058,-0.973 0.082,-1.949 0.106,-2.924 0.01,-0.396 0.036,-0.792 0.04,-1.187 0.017,-1.366 0,-2.732 -0.052,-4.099 -0.941,0.135 -1.871,0.321 -2.794,0.526 -5.081,1.837 -15.423,6.826 -16.59,7.638 -0.717,0.498 -1.419,0.997 -2.11,1.497 -7.806,5.938 -14.475,13.743 -19.647,21.291 -6.427,9.381 -9.17,24.843 -17.492,30.664 -1.54,1.077 -29.382,7.778 -27.679,3.163 -0.187,0.505 1.79,0.172 4.706,-0.598 -0.747,-0.073 -1.485,-0.165 -2.216,-0.274 -2.073,-0.021 -3.998,-0.253 -5.657,-0.745 -0.129,0.159 -1.747,-0.231 -1.222,-0.601 C 90.268,100.901 87.403,77.675 85.263,68.765 82.31,56.473 79.506,44.354 74.305,33.345 74.218,33.172 74.135,32.995 74.047,32.823 73.95,32.622 73.845,32.425 73.747,32.225 73.311,31.387 72.862,30.557 72.393,29.735 72.046,29.129 71.429,27.944 70.647,26.51 68.388,22.766 65.736,19.196 62.614,15.827 62.399,15.75 62.191,15.705 61.991,15.708 61.784,15.71 61.59,15.75 61.399,15.8 c -5.333,18.483 -8.517,48.431 -0.063,68.672 2.224,3.371 5.005,6.554 6.144,10.336 0.074,0.088 0.141,0.183 0.216,0.271 1.167,-1.695 2.167,-3.481 3.015,-5.339 -6.784,5.674 -3.484,-2.505 -3.987,-5.733 C 64.795,71.601 63.86,57.942 62.12,45.11 61.052,37.228 61.268,21.645 70.723,33.787 c 2.648,3.4 4.157,12.348 5.276,19.56 1.498,6.326 2.41,13.047 3.129,18.58 1.774,13.667 -0.673,18.73 -10.96,27.572 -0.428,0.368 -0.835,0.741 -1.257,1.111 -0.898,1.178 -2.289,2.158 -3.822,3.494 -0.124,0.109 -0.247,0.221 -0.371,0.33 -13.214,12.524 -22.525,26.167 -29.03,43.168 -0.564,2.447 -0.962,4.938 -1.138,7.475 2.586,-2.161 5.11,-4.008 7.571,-5.552 1.089,-0.749 2.188,-1.415 3.289,-1.959 0.402,-0.2 0.801,-0.369 1.201,-0.542 12.688,-6.123 23.479,-3.055 31.806,11.25 0.007,0.011 0.014,0.021 0.02,0.032 0.341,0.588 0.678,1.195 1.01,1.82 0.046,0.086 0.094,0.167 0.141,0.255 0.369,0.701 0.732,1.423 1.091,2.169 8.03,16.768 13.86,42.122 8.026,60.25 0.598,-0.433 1.207,-0.832 1.82,-1.213 0.292,-0.186 0.584,-0.363 0.878,-0.537 0.122,-0.07 0.245,-0.14 0.367,-0.207 0.466,-0.269 0.931,-0.548 1.404,-0.795 -0.031,0.03 -0.06,0.06 -0.09,0.086 14.032,-7.143 31.035,-3.976 44.142,-16.083 11.63,-10.746 26.772,-40.38 21.234,-54.838 0.095,-7.97 -3.696,-16.962 -3.66,-23.751 z m -74.914,7.361 c -7.398,-4.075 7.689,-24.342 9.935,-12.402 0.056,3.42 -4.034,15.65 -9.935,12.402 z m 20.803,5.32 c -2.884,-6.446 5.925,-19.753 10.042,-8.628 0.927,6.626 -5.602,18.548 -10.042,8.628 z m 52.533,-54.551 c 6.736,-9.291 20.676,-32.49 32.736,-36.576 2.731,-0.926 1.484,1.263 -1.305,4.555 0.748,-0.543 1.504,-1.018 2.204,-1.392 1.406,8.293 -6.075,20.615 -8.891,27.571 -4.84,11.957 -11.655,25.097 -20.066,34.875 -0.47,-0.12 -0.897,-0.264 -1.308,-0.422 0.196,1.472 -0.51,2.845 -3.208,4.407 -15.285,7.764 -4.26,-27.367 -0.162,-33.018 z"
   id="path135"
   inkscape:connector-curvature="0"
   style="fill:#8499ae" />
	<path
   d="m 231.829,378.31 c 3.185,1.654 5.974,4.829 8.872,7.117 0.814,0.48 1.595,1.006 2.334,1.586 0.258,0.143 0.518,0.274 0.779,0.393 7.352,3.307 1.105,5.146 6.874,-4.314 2.631,-4.313 6.51,-9.938 9.288,-14.381 -1.034,-7.065 -1.227,-13.36 -7.127,-15.997 -6.639,-2.963 -20.409,1.979 -26.995,4.566 5.908,4.091 9.267,14.612 5.975,21.03 z"
   id="path137"
   inkscape:connector-curvature="0"
   style="fill:#8499ae" />
	<path
   d="m 188.897,209.156 c -0.086,-0.346 -0.164,-0.69 -0.269,-1.036 0.102,0.34 0.184,0.69 0.269,1.036 z"
   id="path139"
   inkscape:connector-curvature="0"
   style="fill:#8499ae" />
	<path
   d="m 64.813,34.417 c 0.927,-2.95 4.292,1.787 6.449,5.66 0.752,1.349 1.424,2.84 2.041,4.415 -1.247,-3.708 -2.905,-7.084 -5.315,-9.591 -2.85,-2.964 -3.516,-2.444 -3.175,-0.484 z"
   id="path141"
   inkscape:connector-curvature="0"
   style="fill:#8499ae" />
	<path
   d="m 82.675,120.271 c -1.222,-0.781 -1.761,0.284 -0.933,0.929 0.207,-0.296 0.516,-0.616 0.933,-0.929 z"
   id="path143"
   inkscape:connector-curvature="0"
   style="fill:#8499ae" />
	<path
   d="m 83.969,121.571 c -0.229,-0.312 -0.444,-0.553 -0.652,-0.763 -0.22,0.303 -0.43,0.568 -0.616,0.769 0.347,0.055 0.765,0.062 1.268,-0.006 z"
   id="path145"
   inkscape:connector-curvature="0"
   style="fill:#8499ae" />
	<path
   d="m 104.226,129.75 c -1.977,-0.367 -2.362,2.175 -1.34,2.389 -0.076,-0.479 0.331,-1.562 1.34,-2.389 z"
   id="path147"
   inkscape:connector-curvature="0"
   style="fill:#8499ae" />
	<path
   d="m 103.719,131.911 c 0.442,-0.276 0.985,-0.807 1.629,-1.713 -0.169,-0.1 -0.329,-0.177 -0.484,-0.245 -0.452,0.961 -0.836,1.587 -1.145,1.958 z"
   id="path149"
   inkscape:connector-curvature="0"
   style="fill:#8499ae" />
	<path
   d="m 154.744,90.668 c 6.02,-10.86 15.857,-22.485 19.731,-26.945 -7.773,8.905 -14.7,17.029 -19.731,26.945 z"
   id="path151"
   inkscape:connector-curvature="0"
   style="fill:#8499ae" />
	<path
   d="m 171.54,64.301 c 1.034,-1.427 2.091,-2.833 3.18,-4.218 -3.44,3.519 -6.621,6.684 -7.641,7.925 1.754,-1.446 3.624,-2.815 5.375,-4.213 -0.047,-0.019 -0.276,0.12 -0.914,0.506 z"
   id="path153"
   inkscape:connector-curvature="0"
   style="fill:#8499ae" />
	<path
   d="m 70.611,19.814 c -0.48,-0.667 -0.546,-0.757 0,0 l 0,0 z"
   id="path155"
   inkscape:connector-curvature="0"
   style="fill:#8499ae" />
	<path
   d="m 229.146,372.75 c 0.2,-0.912 0.292,-1.887 0.235,-2.947 -0.208,1.111 -0.26,2.101 -0.235,2.947 z"
   id="path157"
   inkscape:connector-curvature="0"
   style="fill:#8499ae" />
	<path
   d="m 174.719,60.083 c -1.088,1.384 -2.146,2.791 -3.18,4.218 0.639,-0.386 0.867,-0.525 0.914,-0.505 0.042,-0.033 0.087,-0.067 0.13,-0.101 -0.105,0.064 -0.415,1.071 -0.433,1.079 1.216,-1.042 2.349,-1.937 3.635,-2.553 -0.44,0.505 -0.875,1.003 -1.311,1.503 -3.874,4.46 -13.711,16.084 -19.731,26.945 -0.981,1.936 -1.901,3.933 -2.73,6.026 -3.222,8.131 2.127,12.089 2.578,15.508 0.411,0.158 0.837,0.302 1.308,0.422 8.412,-9.777 15.226,-22.918 20.066,-34.875 2.816,-6.956 10.296,-19.277 8.891,-27.571 -0.699,0.374 -1.456,0.848 -2.204,1.392 -2.111,2.494 -5.108,5.622 -7.933,8.512 z"
   id="path159"
   inkscape:connector-curvature="0"
   style="fill:#ffcfce" />
	<path
   d="m 62.12,45.11 c 1.74,12.832 2.675,26.491 4.608,38.895 0.503,3.228 -2.797,11.408 3.987,5.733 3.8,-8.341 4.438,-18.182 2.455,-28.128 -1.444,-7.244 -8.631,-19.207 -8.602,-25.092 0.005,-0.935 0.093,-1.618 0.245,-2.102 -0.342,-1.96 0.324,-2.48 3.174,0.484 2.411,2.507 4.068,5.883 5.315,9.591 1.069,2.732 1.958,5.741 2.696,8.855 -1.119,-7.212 -2.627,-16.16 -5.276,-19.56 -9.454,-12.141 -9.67,3.442 -8.602,11.324 z"
   id="path161"
   inkscape:connector-curvature="0"
   style="fill:#ffcfce" />
	<path
   d="m 205.935,187.17 c -0.198,-0.304 -0.413,-0.569 -0.637,-0.824 0.019,0.056 0.034,0.113 0.053,0.169 0.241,0.244 0.444,0.467 0.584,0.655 z"
   id="path163"
   inkscape:connector-curvature="0"
   style="fill:#634221" />
	<path
   d="m 163.341,148.17 c -0.881,-1.761 -0.947,-1.892 0,0 l 0,0 z"
   id="path165"
   inkscape:connector-curvature="0"
   style="fill:#634221" />
	<path
   d="m 171.828,265.218 c 13.032,-14.394 33.51,-38.828 24.239,-59.933 -0.056,-0.129 -0.103,-0.26 -0.159,-0.387 0.75,-0.094 1.765,-0.228 2.744,-0.303 -3.355,-0.147 -6.641,0.566 -10.627,1.777 0.228,0.569 0.426,1.154 0.604,1.748 0.104,0.346 0.183,0.69 0.269,1.036 0.062,0.25 0.129,0.497 0.183,0.751 0.064,0.309 0.115,0.62 0.166,0.929 0.07,0.403 0.131,0.806 0.18,1.211 0.007,0.062 0.014,0.123 0.021,0.186 0.756,6.531 -0.796,13.806 -3.231,19.859 -0.417,1.619 -0.805,3.232 -1.105,4.835 1.757,11.513 -13.119,17.827 -13.284,28.291 z"
   id="path167"
   inkscape:connector-curvature="0"
   style="fill:#634221" />
	<path
   d="m 179.574,116.402 c 0.515,1.173 0.942,2.381 1.256,3.621 0.056,0.161 0.113,0.325 0.169,0.485 0.255,-4.234 -1.819,-8.939 -4.227,-10.547 0.665,1.274 1.604,2.933 2.613,5.894 0.066,0.189 0.126,0.359 0.189,0.547 z"
   id="path169"
   inkscape:connector-curvature="0"
   style="fill:#634221" />
	<path
   d="m 185.426,131.207 c -0.246,-0.421 -0.572,-0.805 -0.923,-1.162 0.099,0.26 0.201,0.522 0.301,0.779 0.206,0.13 0.398,0.276 0.622,0.383 z"
   id="path171"
   inkscape:connector-curvature="0"
   style="fill:#634221" />
	<path
   d="m 188.404,139.745 c 1.698,4.079 3.604,8.546 6.021,14.312 -1.364,-4.216 -4.022,-10.009 -6.021,-14.312 z"
   id="path173"
   inkscape:connector-curvature="0"
   style="fill:#634221" />
	<path
   d="m 169.404,161.27 c 0.251,0.819 0.546,1.619 0.804,2.432 0.883,2.072 1.715,4.145 2.711,6.169 -1.108,-2.891 -2.29,-5.755 -3.515,-8.601 z"
   id="path175"
   inkscape:connector-curvature="0"
   style="fill:#634221" />
	<path
   d="m 204.455,201.177 c 0.117,-0.038 0.221,-0.078 0.312,-0.124 0.854,-2.719 -2.09,-3.635 -2.219,-5.871 -0.008,-0.116 0.018,-0.207 0.021,-0.317 -0.404,-1.412 -0.149,-2.854 1.833,-4.097 -6.454,-6.196 -6.08,-8.625 -7.811,-17.973 -2.003,-10.826 -6.604,-19.685 -11.084,-29.513 -2.094,-4.588 -2.09,-6.397 -3.456,-10.534 -1.395,-4.216 -3.571,-9.902 -5.328,-14.918 -0.024,-0.071 -0.048,-0.127 -0.072,-0.197 -0.177,-0.349 -0.333,-0.703 -0.516,-1.052 -0.907,-1.73 -1.917,-4.086 -3.272,-5.632 -2.051,-1.187 -4.443,1.12 -8.63,5.334 -14.272,14.368 -0.761,20.179 5.597,35.931 0.177,0.436 0.335,0.879 0.507,1.316 1.744,4.201 3.21,8.553 4.768,12.864 0.414,1.146 0.836,2.585 1.278,4.209 3.001,9.235 5.82,18.528 9.232,27.588 1.138,1.702 2.39,2.966 3.778,3.576 0.049,0.021 0.117,0.032 0.174,0.051 3.289,0.298 7.953,-1.216 10.408,-0.591 0.294,0.03 0.556,0.048 0.82,0.07 1.452,-0.122 2.738,-0.192 3.66,-0.12 z"
   id="path177"
   inkscape:connector-curvature="0"
   style="fill:#634221" />
	<path
   d="m 180.813,194.847 c -0.936,-3.651 -1.953,-7.293 -3.054,-10.92 0.635,2.537 1.275,5.071 1.952,7.597 0.367,1.111 0.682,2.228 1.102,3.323 z"
   id="path179"
   inkscape:connector-curvature="0"
   style="fill:#634221" />
	<path
   d="m 173.701,172.797 c 0.615,1.673 0.695,2.994 1.934,4.473 -0.034,-0.097 -0.066,-0.193 -0.098,-0.292 -0.555,-1.454 -2.759,-6.205 -1.836,-4.181 z"
   id="path181"
   inkscape:connector-curvature="0"
   style="fill:#634221" />
	<path
   d="m 341.757,340.861 c -0.19,0.402 -0.397,0.795 -0.62,1.182 -0.508,0.969 -1.343,3.105 -2.354,5.686 1.246,-2.339 2.314,-4.763 3.187,-7.27 -0.071,0.134 -0.144,0.266 -0.213,0.402 z"
   id="path183"
   inkscape:connector-curvature="0"
   style="fill:#634221" />
	<path
   d="m 329.154,232.183 c 0.635,3.254 1.831,6.379 3.501,9.24 -0.501,-2.896 -1.231,-5.744 -2.183,-8.523 -0.383,-0.794 -0.796,-1.578 -1.247,-2.335 -1.106,-1.026 0.026,0.95 -0.071,1.618 z"
   id="path185"
   inkscape:connector-curvature="0"
   style="fill:#634221" />
	<path
   d="m 329.803,221.504 c 1.179,3.641 2.485,7.237 3.922,10.786 -0.011,0.009 -0.628,-1.423 -1.007,-1.079 12.424,31.89 -5.022,69.51 -10.042,100.904 -1.506,-3.073 -1.71,-8.464 -1.764,-12.832 -6.035,10.314 -2.935,38.383 -8.243,12.043 -0.234,0.408 -0.452,0.838 -0.653,1.283 -0.185,0.41 -0.352,0.838 -0.511,1.275 -0.016,0.04 -0.034,0.08 -0.048,0.12 -0.126,0.354 -0.239,0.728 -0.352,1.099 -0.043,0.14 -0.092,0.273 -0.132,0.413 -0.052,0.18 -0.095,0.37 -0.145,0.556 -1.767,6.676 -1.699,15.471 -3.882,21.782 2.636,-4.459 8.102,-8.258 8.386,-1.077 5.576,-14.855 5.438,7.463 6.838,13.624 2.387,-4.236 6.886,-26.565 9.862,-14.775 3.647,-7.385 6.158,-15.69 9.144,-23.473 14.924,-40.447 3.955,-73.797 -11.373,-110.649 z"
   id="path187"
   inkscape:connector-curvature="0"
   style="fill:#634221" />
	<path
   d="m 310.894,359.038 c 1.895,0.169 0.982,-0.803 1.56,-2.153 -0.125,0.293 -0.352,0.583 -0.605,0.867 -0.335,0.476 -0.653,0.902 -0.955,1.286 z"
   id="path189"
   inkscape:connector-curvature="0"
   style="fill:#634221" />
	<path
   d="m 216.593,389.797 c 0.685,-1.358 1.401,-2.703 2.19,-4.006 -3.686,3.936 -6.18,8.938 -6.746,14.287 1.061,-3.181 2.688,-6.604 4.387,-9.979 0.054,-0.104 0.115,-0.201 0.169,-0.302 z"
   id="path191"
   inkscape:connector-curvature="0"
   style="fill:#634221" />
	<path
   d="m 292.492,381.104 c -0.049,-0.032 -0.101,-0.064 -0.151,-0.097 -0.263,-0.175 -0.542,-0.336 -0.828,-0.491 -2.394,-1.248 -5.663,-1.866 -10.301,-2.135 -0.492,-0.019 -0.97,-0.045 -1.493,-0.054 -6.27,-0.12 -16.258,3.238 -21.847,1.684 -0.254,0.121 -0.502,0.25 -0.741,0.384 -1.807,3.289 -3.389,6.239 -4.21,10.459 -0.933,4.789 -2.886,11.489 -4.461,17.382 0,0.005 -0.001,0.011 -0.002,0.016 0.059,-0.217 9.031,1.614 16.921,3.243 10.472,1.648 21.887,2.47 28.935,-0.617 3.432,-1.503 5.175,-2.743 5.916,-4.359 0.538,-3.52 -0.429,-7.63 -1.221,-11.423 -1.511,-7.251 -3.028,-11.56 -6.517,-13.992 z"
   id="path193"
   inkscape:connector-curvature="0"
   style="fill:#634221" />
	<path
   d="m 289.058,375.72 c -0.276,-0.038 -0.534,-0.086 -0.781,-0.138 0.344,0.127 0.682,0.264 1.018,0.405 1.999,0.052 -0.221,-0.281 -0.237,-0.267 z"
   id="path195"
   inkscape:connector-curvature="0"
   style="fill:#634221" />
	<path
   d="m 224.716,383.453 c -0.633,0.763 -1.524,1.933 -3.001,3.664 -5.125,6.008 -5.991,15.469 -8.423,22.717 2.647,1.041 5.854,1.747 8.71,1.366 10.76,-1.404 29.242,-1.205 21.92,-17.721 -0.68,-1.535 -2.562,-3.535 -4.779,-5.326 -0.048,-0.029 -0.102,-0.054 -0.151,-0.083 -1.842,-1.061 -3.913,-2.601 -6.096,-3.75 -0.421,-0.164 -0.832,-0.309 -1.212,-0.402 -1.639,-0.405 -2.735,-0.806 -3.542,-1.114 -1.141,-0.075 -2.288,0.101 -3.426,0.649 z"
   id="path197"
   inkscape:connector-curvature="0"
   style="fill:#634221" />
	<path
   d="m 185.241,419.213 c -1.753,0.107 -5.016,0.416 -8.965,0.682 2.877,-0.03 7.518,-0.459 8.965,-0.682 z"
   id="path199"
   inkscape:connector-curvature="0"
   style="fill:#634221" />
	<path
   d="m 157.991,384.604 c -0.185,0.038 -0.365,0.049 -0.545,0.064 -0.198,0.609 -0.397,1.219 -0.59,1.799 -1.146,3.447 -10.727,24.04 -9.576,26.745 3.458,8.118 53.769,4.83 57.517,-1.94 9.023,-16.287 -25.404,-24.367 -33.942,-26.78 -5.049,-1.428 -6.97,-2.295 -7.022,-2.778 -1.24,0.284 -2.218,0.95 -3.176,1.589 -0.838,0.561 -1.667,1.093 -2.666,1.301 z"
   id="path201"
   inkscape:connector-curvature="0"
   style="fill:#634221" />
	<path
   d="m 207.941,408.942 c 0.346,-1.09 0.431,-2.309 0.198,-3.675 0.06,1.356 -0.008,2.578 -0.198,3.675 z"
   id="path203"
   inkscape:connector-curvature="0"
   style="fill:#634221" />
	<path
   d="m 129.131,373.929 c -0.046,0.08 -0.086,0.172 -0.135,0.247 -0.6,0.937 -1.9,0.606 -3.112,0.424 -1.343,0.462 -2.459,1.12 -3.406,1.954 -2.833,3.877 -4.688,8.035 -6.467,13.015 -4.496,13.101 -1.995,15.68 12.194,17.03 0.228,0.024 0.517,0.051 0.837,0.083 2.68,0.264 7.109,0.698 10.988,0.529 0.095,0.094 0.201,0.18 0.303,0.266 2.961,0.062 5.517,-0.086 6.408,-0.698 1.498,-1.025 6.76,-17.234 5.868,-19.878 -0.988,-2.924 -16.578,-8.722 -18.665,-11.484 -1.962,-0.738 -3.643,-1.272 -4.715,-1.498 -0.035,0.002 -0.064,0.007 -0.098,0.01 z"
   id="path205"
   inkscape:connector-curvature="0"
   style="fill:#634221" />
	<path
   d="m 104.593,99.822 c 1.659,0.492 3.583,0.724 5.657,0.745 1.263,0.013 2.579,-0.052 3.936,-0.199 6.9,-1.969 17.098,-5.613 18.805,-7.088 4.345,-3.75 4.513,-2.979 7.235,-8.986 4.187,-9.234 0.183,-8.328 -1.459,-13.379 -6.723,-6.307 -20.221,-2.357 -28.811,-1 -0.264,0.042 -0.464,-0.068 -0.631,-0.255 -0.005,0.001 -0.011,0.002 -0.017,0.003 -0.052,0.012 -1.277,-2.629 -3.491,-0.108 -0.425,0.609 -0.917,1.384 -1.495,2.373 -1.257,2.153 -1.73,5.847 -2.577,8.773 -0.847,3.255 -2.178,5.644 -5.792,3.736 -5.368,7.657 3.474,11.675 9.394,14.378 -0.687,0.204 -1.34,0.324 -1.978,0.406 -0.523,0.37 1.094,0.76 1.224,0.601 z"
   id="path207"
   inkscape:connector-curvature="0"
   style="fill:#634221" />
	<path
   d="m 11.343,201.566 c 0.045,-0.223 0.094,-0.443 0.148,-0.666 -0.033,0.104 -0.064,0.212 -0.094,0.317 -0.017,0.116 -0.037,0.234 -0.054,0.349 z"
   id="path209"
   inkscape:connector-curvature="0"
   style="fill:#ffcfce" />
	<path
   d="m 11.812,208.613 c -0.003,-0.048 -0.005,-0.097 -0.007,-0.145 -0.568,-1.192 -0.809,-2.583 -0.785,-4.064 -0.036,0.405 -0.066,0.805 -0.09,1.205 0.047,0.376 0.115,0.741 0.224,1.084 0.23,0.721 0.447,1.341 0.658,1.92 z"
   id="path211"
   inkscape:connector-curvature="0"
   style="fill:#ffcfce" />
	<path
   d="m 83.447,222.382 c 0.009,-0.026 0.017,-0.056 0.025,-0.083 5.22,-20.963 -0.119,-56.063 -16.565,-71.106 -19.881,-18.19 -45.48,13.331 -53.525,41.091 -0.484,2.062 -0.873,4.124 -1.15,6.174 1.268,-3.423 3.322,-6.432 5.186,-7.508 0.048,0.102 0.113,0.435 0.184,0.939 0.709,-0.046 0.966,0.975 0.336,3.543 0.38,5.696 0.371,14.861 -2.295,15.841 -0.79,2.244 -1.98,2.39 -3.83,-2.66 0.909,14.808 9.106,27.199 29.469,29.895 1.396,0.186 2.971,0.303 4.662,0.354 3.805,-0.07 7.737,-0.519 11.715,-1.271 7.305,-1.382 17.47,-3.688 22.776,-9.741 1.099,-1.302 1.977,-2.746 2.61,-4.327 0.141,-0.376 0.293,-0.747 0.402,-1.141 z m -27.805,-4.687 c -4.76,3.457 -6.454,2.032 -6.836,-0.902 -0.513,-1.455 -0.586,-3.662 0.123,-6.773 0.3,-1.313 -0.105,-4.642 -0.347,-7.106 -0.549,-1.398 -0.899,-2.606 -0.116,-2.759 0.02,-0.081 0.047,-0.134 0.085,-0.145 1.611,-0.502 3.066,0.73 4.236,2.526 1.81,2.045 2.618,5.028 2.909,8.027 0.504,1.718 0.477,3.264 0.113,4.55 -0.035,0.926 -0.095,1.803 -0.167,2.582 z"
   id="path213"
   inkscape:connector-curvature="0"
   style="fill:#ffcfce" />
	<path
   d="m 43.41,147.566 c -1.101,0.545 -2.199,1.21 -3.289,1.959 -0.089,0.064 -0.178,0.131 -0.269,0.196 1.98,-1.25 3.931,-2.299 5.846,-3.141 -0.361,0.137 -0.724,0.285 -1.087,0.443 -0.4,0.174 -0.799,0.343 -1.201,0.543 z"
   id="path215"
   inkscape:connector-curvature="0"
   style="fill:#ffcfce" />
	<path
   d="m 341.212,341.893 c 0.188,-0.336 0.362,-0.688 0.545,-1.031 0.069,-0.137 0.143,-0.269 0.212,-0.402 5.254,-10.244 7.833,-23.819 8.961,-35.017 3.058,-32.358 -3.074,-75.759 -28.65,-97.921 -14.693,-12.733 -31.394,-22.324 -51.47,-20.633 -9.897,0.833 -17.834,4.269 -26.33,9.165 -8.015,4.62 -27.256,9.605 -34.282,4.172 -4.087,-3.16 -3.223,-8.738 -4.847,-13.71 -0.019,-0.056 -0.034,-0.113 -0.053,-0.169 -0.012,-0.035 -0.021,-0.07 -0.033,-0.104 -1.62,-4.671 -3.96,-6.188 -5.073,-12.674 -1.152,-6.711 -3.132,-13.231 -5.766,-19.511 -2.417,-5.766 -4.323,-10.233 -6.021,-14.312 -1.275,-3.067 -2.438,-5.921 -3.601,-8.92 -0.1,-0.257 -0.202,-0.52 -0.301,-0.779 -1.114,-2.892 -2.247,-5.97 -3.503,-9.537 -0.056,-0.16 -0.113,-0.324 -0.169,-0.485 -0.405,-1.153 -0.822,-2.352 -1.256,-3.621 -0.063,-0.188 -0.124,-0.358 -0.188,-0.547 -1.009,-2.961 -1.949,-4.62 -2.613,-5.894 -1.138,-2.179 -1.473,-3.228 0.023,-7.694 2.158,-6.449 8.002,-13.146 10.869,-19.627 3.694,-8.354 17.788,-39.836 9.897,-48.458 -12.348,-13.496 -47.273,31.531 -51.829,39.327 -2.864,-2.724 -2.35,-7.117 -5.363,-8.734 -4.926,-2.644 -15.331,-0.165 -20.408,1.078 -2.068,-3.027 -3.091,-3.391 -6.983,-0.97 -4.645,-9.771 -14.688,11.804 -15.118,16.5 -4.371,0.283 -1.779,-1.292 -5.002,2.552 C 81.944,62.505 83.493,38.066 68.888,17.578 63.495,10.013 60.269,3.944 57.083,16.248 52.98,32.087 52.457,48.638 54.275,64.85 c 1.121,9.996 6.261,18.454 7.81,27.715 0.21,1.259 3.234,3.483 3.096,4.673 -0.22,1.88 -8.026,7.172 -9.809,8.843 -4.139,3.88 -8.024,7.724 -11.32,12.366 -8.027,11.306 -13.367,25.478 -15.999,39.039 -1.63,8.402 -14.129,18.168 -17.762,27.285 -7.202,18.069 -3.995,44.213 15.405,53.741 16.509,8.109 41.723,2.604 55.97,-7.044 1.771,26.015 7.013,54.205 20.695,76.856 4.564,7.554 10.235,14.212 16.27,20.614 7.419,7.873 -1.015,10.676 4.337,18.442 5.897,8.558 6.275,16.885 1.422,23.813 -1.778,2.54 -5.845,4.094 -7.919,7.191 -2.323,3.469 -3.787,9.087 -5.04,13.085 -3.388,10.82 -2.193,14.077 8.675,17.073 8.297,2.289 16.933,2.711 25.448,1.474 -5.514,11.17 16.824,10.815 30.723,9.881 3.949,-0.266 7.212,-0.574 8.965,-0.682 0.214,-0.013 0.42,-0.026 0.588,-0.032 10.608,-0.413 20.517,-1.036 22.112,-10.238 0.189,-1.098 0.258,-2.319 0.198,-3.675 -0.054,-1.243 -0.214,-2.596 -0.499,-4.078 -1.225,-6.381 -5.002,-9.337 -5.254,-17.417 -0.118,-3.753 -0.996,-9.347 0.431,-13.049 0.679,-1.756 8.896,-11.885 9.18,-12.043 7.702,-4.292 16.976,3.243 17.385,11.122 0.057,1.061 -0.035,2.035 -0.235,2.947 -1.433,6.523 -8.733,9.785 -12.554,17.047 -0.054,0.102 -0.115,0.198 -0.169,0.303 -1.699,3.375 -3.326,6.798 -4.387,9.979 -2.631,7.887 -1.775,14.273 10.145,14.646 7.384,0.229 15.248,-1.125 22.604,-1.401 12.26,-0.464 45.129,7.613 55.142,-0.362 5.266,-4.193 3.536,-13.438 2.341,-19.841 -1.162,-6.223 -3.913,-10.84 -7.733,-13.989 -1.574,-1.296 -3.337,-2.338 -5.24,-3.144 -0.336,-0.142 -0.674,-0.278 -1.018,-0.405 -6.717,-2.482 -15.07,-2.14 -23.586,0.68 -2.378,0.786 -4.599,1.535 -6.769,2.692 0.756,-1.391 1.535,-2.872 2.305,-4.563 2.24,-4.918 2.377,-25.621 -1.044,-26.96 4.59,-11.641 3.836,-22.869 5.94,-35.339 2.875,-17.033 18.722,-25.867 25.304,-40.675 1.272,-2.862 7.973,-23.173 1.906,-23.704 -1.194,-0.107 -1.498,12.944 -2.087,15.313 -3.027,12.16 -12.237,20.731 -18.788,29.728 -8.479,11.643 -7.02,18.04 -9.288,31.097 -0.827,4.763 -3.462,11.992 -6.873,15.638 -10.656,11.385 -30.68,8.522 -44.416,13.91 2.726,-18.058 15.231,-35.858 9.97,-54.532 -2.827,5.492 -2.438,15.084 -4.014,22.106 -2.324,10.354 -6.457,20.026 -8.513,30.593 -1.592,8.188 -2.622,11.187 -8.278,17.436 -2.819,3.114 -12.23,8.811 -1.223,5.211 -0.147,3.686 0.039,7.396 0.493,11.076 0.332,2.708 0.805,5.4 1.414,8.048 -0.663,-0.513 -1.345,-1.007 -2.029,-1.495 -0.33,-0.236 -0.66,-0.468 -0.996,-0.698 -0.174,-0.121 -0.354,-0.233 -0.529,-0.352 -5.646,-3.793 -11.954,-6.73 -18.582,-8.166 -4.771,-1.036 -14.883,-2.032 -14.762,-0.91 0.052,0.483 1.973,1.351 7.022,2.778 8.538,2.413 42.965,10.493 33.942,26.78 -3.748,6.771 -54.06,10.059 -57.517,1.94 -1.151,-2.705 8.429,-23.298 9.576,-26.745 0.193,-0.58 0.392,-1.189 0.59,-1.799 0.127,-0.395 0.252,-0.797 0.381,-1.202 1.622,-5.139 3.185,-11.157 3.095,-17.524 4.215,10.026 8.572,5.71 1.71,-3.254 -7.374,-9.632 -10.379,-10.179 -8.441,-23.419 -0.071,-0.078 -0.477,0.483 -0.468,0.612 -2.252,-11.428 -4.502,-27.393 -8.781,-38.536 -0.073,0.021 -0.145,0.049 -0.218,0.07 -5.369,13.267 7.205,24.501 6.875,37.206 -14.145,-1.761 -25.336,-8.096 -34.207,-17.095 -2.069,-2.099 -4.007,-4.346 -5.831,-6.711 -14.845,-19.271 -21.797,-46.6 -25.001,-69.082 -1.646,-11.552 -5.674,-15.371 3.923,-21.21 8.468,-5.151 21.233,-4.682 30.917,-8.521 17.092,-6.771 24.376,-16.383 30.846,-33.43 5.566,-14.663 7.741,-26.706 7.019,-42.023 6.671,11.441 12.013,23.776 16.271,36.426 0.032,0.099 0.064,0.196 0.098,0.292 0.741,2.212 1.451,4.429 2.125,6.657 1.101,3.627 2.118,7.27 3.054,10.92 0.229,0.894 0.46,1.788 0.679,2.682 2.359,9.597 6.434,15.446 4.086,26.708 -1.216,5.833 -8.517,27.258 -0.595,10.676 0.43,-0.899 0.84,-1.847 1.231,-2.821 2.436,-6.054 3.987,-13.328 3.231,-19.859 -0.007,-0.063 -0.013,-0.124 -0.021,-0.186 -0.049,-0.405 -0.109,-0.808 -0.18,-1.211 -0.053,-0.309 -0.102,-0.623 -0.166,-0.929 -0.054,-0.255 -0.121,-0.502 -0.183,-0.751 -0.086,-0.346 -0.167,-0.695 -0.269,-1.036 -0.178,-0.593 -0.376,-1.179 -0.604,-1.748 3.986,-1.211 7.271,-1.925 10.627,-1.777 1.896,0.083 3.814,0.448 5.893,1.152 0.634,0.214 1.277,0.451 1.943,0.732 0.098,-0.354 0.244,-0.66 0.414,-0.945 0.774,-1.302 2.255,-1.919 4.064,-2.166 3.249,-0.44 7.543,0.309 10.676,0.451 4.269,0.199 39.465,-1.909 20.155,-2.266 17.275,-14.671 38.44,-14.37 56.076,-5.49 14.839,7.471 27.18,21.014 32.599,36.836 0.951,2.779 1.682,5.627 2.183,8.523 0.381,2.21 0.635,4.445 0.729,6.703 1.983,47.029 -34.527,77.117 -40.259,120.01 -1.459,10.918 0.104,8.803 1.812,2.709 0.58,-2.07 1.179,-4.602 1.68,-7.237 2.054,-10.809 4.75,-17.007 10.69,-26.241 -0.266,4.029 -5.514,33.201 3.587,21.672 0.303,-0.384 0.62,-0.811 0.954,-1.286 0.2,-0.284 0.394,-0.55 0.605,-0.867 -0.067,5.471 1.777,6.064 5.075,2.553 0.154,2.744 1.825,20.574 5.939,20.273 1.92,-0.14 4.78,-17.041 5.363,-18.837 1.683,7.71 6.711,-4.901 9.951,-13.146 1.012,-2.58 1.847,-4.717 2.354,-5.686 0.028,-0.05 0.055,-0.108 0.079,-0.151 z M 80.435,227.851 c -5.306,6.054 -15.472,8.359 -22.776,9.741 -3.979,0.752 -7.911,1.2 -11.715,1.271 -14.761,0.273 -27.589,-5.197 -33.602,-21.205 -1.271,-3.382 -1.69,-7.508 -1.411,-12.048 0.024,-0.4 0.054,-0.8 0.09,-1.205 -0.024,1.481 0.217,2.872 0.785,4.064 0.323,0.677 0.737,1.299 1.293,1.82 1.041,0.972 1.875,1.232 2.544,0.985 2.666,-0.979 2.675,-10.145 2.295,-15.841 -0.099,-1.49 -0.225,-2.741 -0.336,-3.543 -0.071,-0.505 -0.135,-0.837 -0.184,-0.939 -1.864,1.076 -3.918,4.085 -5.186,7.508 -0.296,0.797 -0.543,1.619 -0.74,2.443 -0.054,0.223 -0.103,0.443 -0.148,0.666 0.017,-0.115 0.037,-0.233 0.054,-0.349 0.43,-2.886 1.102,-5.887 1.985,-8.934 8.045,-27.76 33.645,-59.281 53.525,-41.091 16.447,15.044 21.785,50.144 16.565,71.106 -0.003,0.011 -0.005,0.021 -0.007,0.032 -0.005,0.019 -0.014,0.035 -0.018,0.051 -0.109,0.395 -0.261,0.766 -0.402,1.142 -0.613,1.62 -1.501,3.058 -2.611,4.326 z m 147.707,154.953 c 0.807,0.309 1.903,0.709 3.542,1.114 0.38,0.094 0.791,0.238 1.212,0.402 1.938,0.76 4.229,2.204 6.247,3.833 2.218,1.791 4.1,3.791 4.779,5.326 7.322,16.516 -11.16,16.316 -21.92,17.721 -2.856,0.381 -6.063,-0.325 -8.71,-1.366 2.432,-7.248 3.298,-16.709 8.423,-22.717 1.477,-1.731 2.368,-2.901 3.001,-3.664 1.31,-1.575 1.522,-1.38 3.426,-0.649 z m 72.087,23.715 c -0.741,1.616 -2.484,2.856 -5.916,4.359 -7.048,3.087 -18.463,2.266 -28.935,0.617 -6.398,-1.007 -12.443,-2.322 -16.921,-3.243 0,-0.005 0.002,-0.011 0.002,-0.016 1.575,-5.893 3.528,-12.593 4.461,-17.382 0.821,-4.22 2.403,-7.17 4.21,-10.459 0.097,-0.175 0.196,-0.359 0.294,-0.537 0.149,0.052 0.29,0.11 0.447,0.153 5.589,1.555 15.577,-1.804 21.847,-1.684 0.523,0.009 1.001,0.035 1.493,0.054 4.601,0.183 7.884,0.809 10.301,2.135 0.286,0.155 0.565,0.316 0.828,0.491 0.05,0.035 0.104,0.062 0.151,0.097 3.489,2.432 5.006,6.74 6.517,13.991 1.241,5.947 2.294,9.085 1.221,11.424 z M 252.85,352.713 c 5.9,2.637 6.093,8.932 7.127,15.997 -2.778,4.443 -6.657,10.067 -9.288,14.381 -5.769,9.46 0.478,7.621 -6.874,4.314 -0.262,-0.118 -0.521,-0.25 -0.779,-0.393 -0.792,-0.435 -1.567,-0.979 -2.334,-1.586 -2.898,-2.288 -5.688,-5.463 -8.872,-7.117 3.292,-6.418 -0.067,-16.938 -5.975,-21.03 6.585,-2.588 20.356,-7.529 26.995,-4.566 z M 126.009,337.184 c 2.225,1.32 5.372,2.508 7.27,4.244 5.342,3.015 11.993,7.291 17.673,8.123 -1.007,5.584 3.533,6.392 4.932,10.569 1.444,4.316 1.428,9.078 1.259,13.804 -0.468,13.063 -2.051,7.723 -9.538,4.528 -1.696,-0.723 -13.181,-5.187 -13.846,-3.782 -0.102,0.212 -0.03,0.464 0.185,0.746 2.087,2.763 17.677,8.561 18.665,11.484 0.892,2.644 -4.37,18.853 -5.868,19.878 -0.891,0.612 -3.447,0.76 -6.408,0.698 -4.058,-0.08 -8.875,-0.556 -11.292,-0.795 -0.32,-0.032 -0.609,-0.059 -0.837,-0.083 -13.101,-1.245 -17.045,-3.148 -12.507,-16.157 0.104,-0.299 0.208,-0.58 0.313,-0.873 1.779,-4.979 3.635,-9.138 6.467,-13.015 0.381,-0.521 0.773,-1.038 1.191,-1.551 0.481,-0.591 1.324,-0.534 2.215,-0.403 1.212,0.183 2.512,0.513 3.112,-0.424 0.049,-0.075 0.088,-0.167 0.135,-0.247 2.171,-3.753 1.674,-11.699 1.449,-16.074 6.843,5.629 0.454,-3.995 -0.827,-6.938 -2.057,-4.721 -5.482,-6.315 -3.743,-13.732 z m 9.215,-133.132 c -13.106,12.107 -30.109,8.94 -44.142,16.083 -0.441,0.226 -0.878,0.462 -1.313,0.709 -0.122,0.067 -0.245,0.137 -0.367,0.207 -0.294,0.172 -0.586,0.354 -0.878,0.537 -0.613,0.381 -1.222,0.78 -1.82,1.213 5.834,-18.128 0.004,-43.483 -8.026,-60.25 -0.358,-0.746 -0.722,-1.468 -1.091,-2.169 -0.047,-0.088 -0.094,-0.169 -0.141,-0.255 -0.333,-0.623 -0.668,-1.235 -1.01,-1.82 -0.006,-0.011 -0.013,-0.021 -0.02,-0.032 -8.199,-14.029 -18.783,-16.939 -30.718,-11.693 -1.915,0.841 -3.865,1.891 -5.846,3.141 -3.044,1.921 -6.161,4.301 -9.334,7.114 0.973,-3.192 2.032,-6.26 3.17,-9.233 6.504,-17.001 15.815,-30.644 29.03,-43.168 1.356,-1.286 2.753,-2.56 4.193,-3.824 0.422,-0.37 0.829,-0.743 1.257,-1.111 10.287,-8.841 12.734,-13.905 10.96,-27.572 -0.719,-5.533 -1.631,-12.254 -3.129,-18.58 -0.738,-3.114 -1.627,-6.123 -2.696,-8.855 -0.617,-1.575 -1.289,-3.066 -2.041,-4.415 -2.157,-3.874 -5.522,-8.61 -6.449,-5.66 -0.152,0.484 -0.24,1.167 -0.245,2.102 -0.029,5.885 7.158,17.848 8.602,25.092 1.983,9.946 1.345,19.787 -2.455,28.128 C 69.867,91.599 68.867,93.386 67.7,95.08 67.625,94.993 67.557,94.897 67.484,94.809 64.973,91.81 62.946,88.318 61.34,84.473 52.885,64.231 56.07,34.284 61.403,15.801 c 0.095,-0.33 0.189,-0.67 0.286,-0.993 0.324,0.334 0.615,0.682 0.929,1.02 3.122,3.369 5.773,6.939 8.033,10.683 1.124,1.864 2.146,3.773 3.099,5.714 0.098,0.2 0.203,0.397 0.3,0.598 0.084,0.174 0.175,0.347 0.258,0.522 5.201,11.01 8.004,23.128 10.958,35.42 2.14,8.91 5.005,32.136 18.106,30.458 0.638,-0.082 1.291,-0.202 1.978,-0.406 -5.92,-2.704 -14.762,-6.722 -9.394,-14.378 3.613,1.908 4.945,-0.481 5.792,-3.736 0.647,-2.486 1.012,-5.477 1.894,-7.444 0.807,-1.802 1.535,-2.968 2.178,-3.703 2.213,-2.521 3.439,0.12 3.491,0.108 0.005,-0.001 0.011,-0.002 0.017,-0.003 8.208,-1.707 19.693,-3.744 28.85,-2.045 0.086,1.344 0.303,2.413 0.592,3.301 1.642,5.052 5.646,4.146 1.459,13.379 -2.722,6.008 -2.89,5.236 -7.235,8.986 -1.707,1.475 -11.905,5.12 -18.805,7.088 -0.602,0.172 -1.176,0.33 -1.719,0.474 -2.916,0.771 -4.893,1.104 -4.706,0.598 -1.703,4.615 26.139,-2.086 27.679,-3.163 8.322,-5.821 11.065,-21.283 17.492,-30.664 5.173,-7.547 11.841,-15.353 19.647,-21.291 5.674,-4.315 11.949,-7.635 18.7,-9.135 0.923,-0.205 1.853,-0.391 2.794,-0.526 0.052,1.367 0.068,2.733 0.052,4.099 -0.004,0.395 -0.03,0.791 -0.04,1.187 -0.024,0.975 -0.049,1.951 -0.106,2.924 -0.021,0.365 -0.062,0.728 -0.087,1.092 -0.072,1.014 -0.148,2.027 -0.256,3.038 -0.025,0.24 -0.061,0.479 -0.09,0.719 -0.131,1.148 -0.273,2.294 -0.447,3.438 -0.009,0.053 -0.021,0.107 -0.029,0.16 -2.477,15.991 -9.157,31.371 -18.338,44.599 -0.189,0.273 -0.371,0.554 -0.563,0.826 -0.969,1.373 -2.129,2.711 -3.398,4.031 -5.637,5.858 -13.471,11.316 -16.829,17.466 -0.314,0.575 -0.533,1.199 -0.711,1.843 -0.29,1.045 -0.421,2.177 -0.428,3.379 -0.036,6.789 3.754,15.78 3.658,23.751 5.532,14.457 -9.61,44.092 -21.24,54.837 z m 65.571,-2.751 c -0.265,-0.021 -0.526,-0.04 -0.82,-0.07 -2.455,-0.625 -7.119,0.889 -10.408,0.591 -1.582,-0.143 -2.85,-0.698 -3.395,-2.118 -0.192,-0.5 -0.369,-1.007 -0.558,-1.509 -3.412,-9.06 -6.231,-18.354 -9.232,-27.588 -1.867,-5.742 -3.827,-11.455 -6.045,-17.073 -0.172,-0.438 -0.33,-0.88 -0.507,-1.316 -6.358,-15.751 -19.869,-21.563 -5.597,-35.931 4.188,-4.214 6.58,-6.521 8.63,-5.334 1.276,0.738 2.424,2.833 3.788,6.684 0.024,0.07 0.048,0.126 0.072,0.197 1.757,5.016 3.933,10.702 5.328,14.918 1.366,4.137 1.362,5.946 3.456,10.534 4.48,9.828 9.081,18.687 11.084,29.513 1.73,9.348 1.356,11.777 7.811,17.973 -1.982,1.243 -2.237,2.685 -1.833,4.097 0.773,2.703 3.966,5.291 2.198,6.188 -0.091,0.046 -0.194,0.086 -0.312,0.124 -0.682,0.209 -1.84,0.262 -3.66,0.12 z m 121.376,169.1 c -1.4,-6.161 -1.262,-28.479 -6.838,-13.624 -0.284,-7.181 -5.75,-3.382 -8.386,1.077 2.077,-6.344 2.116,-15.154 3.882,-21.782 0.05,-0.186 0.093,-0.376 0.145,-0.556 0.04,-0.14 0.089,-0.273 0.132,-0.413 0.112,-0.371 0.226,-0.744 0.352,-1.099 0.014,-0.043 0.032,-0.08 0.048,-0.12 0.159,-0.438 0.326,-0.865 0.511,-1.275 0.201,-0.448 0.419,-0.875 0.653,-1.283 5.309,26.34 2.208,-1.729 8.243,-12.043 0.054,4.368 0.258,9.759 1.764,12.832 5.02,-31.395 22.466,-69.015 10.042,-100.904 0.379,-0.344 0.996,1.088 1.007,1.079 -1.437,-3.549 -2.743,-7.146 -3.922,-10.786 15.328,36.853 26.297,70.202 11.374,110.649 -2.985,7.782 -5.496,16.088 -9.144,23.473 -2.977,-11.79 -7.476,10.539 -9.863,14.775 z"
   id="path217"
   inkscape:connector-curvature="0" />
	<path
   d="m 154.592,112.203 c -0.451,-3.419 -5.8,-7.377 -2.578,-15.508 0.829,-2.093 1.749,-4.09 2.73,-6.026 5.031,-9.916 11.958,-18.04 19.731,-26.945 0.436,-0.5 0.871,-0.998 1.311,-1.503 -1.286,0.616 -2.418,1.512 -3.635,2.553 0.018,-0.008 0.328,-1.015 0.433,-1.079 -0.043,0.034 -0.089,0.068 -0.13,0.101 -1.751,1.397 -3.622,2.767 -5.375,4.213 1.02,-1.241 4.201,-4.407 7.641,-7.925 2.825,-2.891 5.821,-6.018 7.934,-8.513 2.789,-3.292 4.036,-5.481 1.305,-4.555 -12.06,4.086 -26,27.285 -32.736,36.576 -4.098,5.651 -15.123,40.782 0.162,33.018 2.698,-1.562 3.404,-2.935 3.207,-4.407 z"
   id="path219"
   inkscape:connector-curvature="0" />
	<path
   d="m 108.732,129.515 c -4.117,-11.125 -12.926,2.182 -10.042,8.628 4.439,9.92 10.968,-2.002 10.042,-8.628 z m -5.013,2.396 c -0.48,0.58 -0.779,0.568 -0.833,0.228 -1.022,-0.214 -0.637,-2.756 1.34,-2.389 0.29,-0.237 0.621,-0.457 1.014,-0.63 -0.131,0.311 -0.254,0.573 -0.376,0.834 0.155,0.067 0.315,0.145 0.484,0.245 -0.644,0.905 -1.187,1.436 -1.629,1.712 z"
   id="path221"
   inkscape:connector-curvature="0" />
	<path
   d="m 105.24,129.119 c -0.393,0.174 -0.724,0.394 -1.014,0.63 -1.009,0.828 -1.416,1.91 -1.34,2.389 0.054,0.34 0.352,0.353 0.833,-0.228 0.31,-0.372 0.693,-0.997 1.145,-1.958 0.122,-0.26 0.245,-0.522 0.376,-0.833 z"
   id="path223"
   inkscape:connector-curvature="0"
   style="fill:#ffffff" />
	<path
   d="m 77.886,132.823 c 5.901,3.248 9.991,-8.982 9.935,-12.402 -2.246,-11.941 -17.334,8.327 -9.935,12.402 z m 6.083,-11.252 c -0.502,0.068 -0.92,0.061 -1.269,0.006 -1.201,1.295 -1.665,0.633 -0.958,-0.377 -0.828,-0.645 -0.29,-1.71 0.933,-0.929 0.409,-0.307 0.912,-0.606 1.545,-0.857 -0.327,0.566 -0.625,1.012 -0.904,1.395 0.208,0.209 0.423,0.45 0.653,0.762 z"
   id="path225"
   inkscape:connector-curvature="0" />
	<path
   d="m 82.675,120.271 c -0.417,0.313 -0.726,0.634 -0.933,0.929 -0.707,1.01 -0.243,1.672 0.958,0.377 0.187,-0.201 0.396,-0.466 0.616,-0.769 0.279,-0.382 0.577,-0.828 0.904,-1.395 -0.633,0.251 -1.136,0.55 -1.545,0.858 z"
   id="path227"
   inkscape:connector-curvature="0"
   style="fill:#ffffff" />
	<path
   d="m 55.696,210.563 c -0.02,-0.067 -0.032,-0.134 -0.054,-0.202 -0.1,-1.551 -1.187,-5.264 -2.855,-7.825 -1.17,-1.796 -2.625,-3.028 -4.236,-2.526 -0.038,0.011 -0.065,0.064 -0.085,0.145 -0.098,0.37 -0.015,1.438 0.116,2.759 0.242,2.464 0.647,5.793 0.347,7.106 -0.709,3.111 -0.636,5.318 -0.123,6.773 1.366,3.876 5.85,2.397 7.003,-1.681 0.364,-1.286 0.391,-2.832 -0.113,-4.549 z"
   id="path229"
   inkscape:connector-curvature="0" />
	<path
   d="m 74.43,265.755 c 1.891,3.208 -1.508,-2.556 0,0 l 0,0 z"
   id="path231"
   inkscape:connector-curvature="0" />
</g>
<path
   style="fill:#ffffff;fill-opacity:1;stroke:#000000;stroke-width:4;stroke-miterlimit:4;stroke-opacity:1;stroke-dasharray:none"
   d="M 179.85849,527.8541 C 185.18568,481.626 174.60578,421.28876 153.96144,380.16295 134.30852,341.01217 106.46837,335.06767 72.467132,362.76206 l -9.874438,8.04283 0.986429,-7.59069 c 1.977945,-15.22055 19.40185,-55.25127 34.351063,-78.92015 7.817604,-12.37752 22.155914,-30.66345 38.853074,-49.55009 16.22457,-18.35207 19.07599,-22.79218 22.74737,-35.4213 2.78731,-9.58802 2.90476,-13.35946 1.04539,-33.5698 -2.17477,-23.63852 -9.99862,-76.241678 -12.98954,-87.334299 -3.37702,-12.524601 -14.91547,-25.825384 -19.79007,-22.812717 -2.7993,1.730062 -5.57902,13.580117 -5.59032,23.831742 -0.006,5.059363 2.44381,33.639154 5.44308,63.510644 5.96238,59.38296 6.263,64.52968 3.76916,64.52968 -2.88392,0 -10.70589,-18.44665 -13.87402,-32.71927 -3.94066,-17.75296 -5.57343,-77.282197 -2.78135,-101.405062 2.85203,-24.640745 7.52472,-49.467135 9.31045,-49.467135 2.27544,0 17.20263,24.92034 22.32077,37.263614 7.65795,18.468479 15.32095,45.829273 22.14574,79.071573 11.60417,56.52172 13.78934,65.15401 19.26878,76.11933 5.71254,11.4318 10.06278,15.37511 18.91204,17.14295 12.90144,2.57735 19.77133,4.49216 16.81407,4.68649 -4.36547,0.28687 -4.01076,3.20353 0.53415,4.39205 7.34972,1.92199 42.10275,-5.09882 52.91452,-10.68982 9.59578,-4.96217 14.54795,-14.17095 31.21551,-58.04664 9.84727,-25.9219 36.12122,-63.24579 53.49379,-75.991432 10.07932,-7.394826 34.86871,-21.171102 38.16254,-21.208166 3.52468,-0.03966 2.84547,25.287408 -1.32138,49.272328 -9.26616,53.33725 -28.7523,96.77416 -58.16176,129.64943 -8.89448,9.94266 -18.37953,22.44109 -21.07787,27.7743 -5.40137,10.6756 -5.40042,11.9881 0.0345,47.76159 6.34532,41.76584 6.53548,44.26505 4.56378,59.98533 -4.18229,33.34553 -25.82427,82.7492 -45.79857,104.54761 -13.37076,14.59185 -25.01444,20.46372 -57.69585,29.09583 -13.47228,3.55842 -28.09448,8.48162 -32.49378,10.94043 -4.39935,2.45882 -8.32752,4.47058 -8.72932,4.47058 -0.4018,0 -0.0943,-5.52137 0.68338,-12.26972 z m 32.24422,-186.99669 c 4.08252,-1.56661 9.47388,-12.74486 10.97503,-22.75521 1.70104,-11.34341 -2.62764,-20.21319 -9.46465,-19.39372 -12.62318,1.51302 -18.47872,28.85229 -8.53333,39.84182 3.558,3.93155 3.14406,3.79557 7.02295,2.30711 z m -44.9925,-23.42211 c 8.0516,-5.63956 14.66389,-33.29253 9.25432,-38.70209 -7.8357,-7.83569 -23.30909,10.9457 -23.23921,28.20743 0.0306,7.55607 1.29915,10.34134 5.42538,11.91205 4.12098,1.5687 4.35052,1.53069 8.55951,-1.41739 l 0,0 z m 145.9096,-39.95457 c 2.87877,-1.48867 5.75621,-4.35161 6.39431,-6.36208 0.6381,-2.01047 1.82919,-3.65541 2.64688,-3.65541 1.33109,0 8.72387,-11.73283 19.82964,-31.47091 7.90351,-14.04678 32.55984,-76.74761 39.30734,-99.9582 3.26345,-11.22586 4.86506,-35.80272 2.33317,-35.80272 -8.4088,0 -28.2797,21.00616 -44.58826,47.13564 -29.68187,47.55611 -37.95548,67.44513 -42.04379,101.06935 -3.31332,27.25026 1.79442,36.45274 16.12071,29.04433 z"
   id="path3214"
   inkscape:connector-curvature="0" /><path
   style="fill:#ffffff;fill-opacity:1;stroke:#000000;stroke-width:4;stroke-miterlimit:4;stroke-opacity:1;stroke-dasharray:none"
   d="m 403.03636,963.33461 c -15.7189,-10.75444 -26.90453,-15.12139 -45.81485,-17.88646 -11.18039,-1.63478 -15.59336,-1.63947 -18.61976,-0.0198 -6.95377,3.72154 -11.30844,3.89957 -10.25535,0.41927 2.68356,-8.8687 4.62382,-20.35149 4.66944,-27.63446 l 0.0512,-8.17981 3.60196,5.90764 c 6.35752,10.42709 10.98157,6.22005 6.65178,-6.05188 -1.40752,-3.98933 -6.74185,-13.66064 -11.85408,-21.49178 -10.81138,-16.56139 -13.28137,-24.26852 -12.75182,-39.78972 0.54064,-15.84629 -15.12349,-102.24592 -19.29296,-106.4154 -0.3666,-0.3666 -1.6259,2.89246 -2.79845,7.24234 -2.91596,10.81747 -1.17914,22.82967 7.11401,49.20211 3.86166,12.28016 7.54523,25.78486 8.18571,30.01045 l 1.16452,7.68286 -5.92233,-1.12599 C 286.85605,831.34264 262.90057,816.7565 246.53419,798.2865 212.1235,759.45295 192.20811,705.20314 177.6513,610.64861 c -6.80382,-44.19461 -6.73278,-46.88668 1.47003,-55.70536 6.3978,-6.87815 16.9836,-11.36845 42.14131,-17.87557 34.64978,-8.96226 51.7719,-18.70317 67.31072,-38.2936 20.72815,-26.13283 36.57596,-75.39927 41.23782,-128.19697 l 2.21064,-25.0366 3.18145,6.20128 c 5.508,10.73619 14.79492,36.63799 27.78712,77.50006 6.58397,20.70736 21.32809,85.91008 22.19617,98.15781 0.75996,10.72216 -0.0685,18.29042 -3.87999,35.44588 -2.66546,11.99707 -5.26115,23.24431 -5.76819,24.99389 -1.62433,5.60464 2.85344,3.39749 5.53164,-2.72661 l 2.58354,-5.90765 0.14832,6.59768 c 0.15142,6.7343 -4.68401,17.36623 -19.32033,42.48123 -6.89106,11.82464 -11.64317,26.00737 -7.94912,23.72433 3.06606,-1.89494 24.19644,-32.58274 32.9653,-47.87577 9.68674,-16.89381 19.14746,-41.23913 22.04864,-56.73787 1.88052,-10.04614 1.10648,-33.51392 -1.37217,-41.60157 -1.31544,-4.29221 -1.2172,-4.32865 9.31526,-3.45522 8.80534,0.73021 11.28746,0.27546 14.36433,-2.63165 3.14479,-2.97129 5.68601,-3.39343 16.44378,-2.7316 16.76053,1.03112 63.06932,-1.92464 65.31346,-4.16877 1.13619,-1.13623 -0.0927,-1.76104 -3.46374,-1.76104 l -5.22475,0 4.36969,-4.65132 c 6.65566,-7.08463 28.21146,-16.89417 44.30515,-20.16225 17.46262,-3.54605 35.84349,-1.60489 54.13283,5.71683 13.50193,5.40519 37.00726,23.28961 48.20752,36.67949 15.3994,18.40994 29.03255,44.43346 30.69849,58.59851 0.52178,4.43662 2.52689,12.21881 4.45578,17.29375 2.85941,7.52309 3.50591,13.92688 3.50069,34.67546 -0.0109,45.37151 -7.53663,76.90378 -32.7524,137.23917 -35.75964,85.56436 -40.97438,99.88261 -47.33479,129.96821 -4.61749,21.84135 -6.54458,44.53456 -3.78184,44.53456 1.1435,0 2.07909,1.1878 2.07909,2.63958 0,2.01678 -2.23385,1.48065 -9.46763,-2.27218 -15.30844,-7.94191 -37.57723,-6.47063 -61.86487,4.08739 -3.00854,1.30784 -3.00968,1.02562 -0.0227,-5.62886 2.54469,-5.66922 3.14429,-12.38087 3.14298,-35.18067 -10e-4,-18.40014 -0.75055,-29.49464 -2.16033,-31.97887 -1.69122,-2.98016 -1.60946,-5.88611 0.3776,-13.41865 2.47507,-9.38259 4.28904,-23.00575 8.23535,-61.84898 3.38426,-33.31083 7.24119,-42.86788 32.07036,-79.46647 23.41089,-34.50804 30.22891,-53.1215 30.46823,-83.17944 0.11016,-13.83364 -0.33068,-16.4093 -2.89538,-16.91736 -2.50346,-0.49593 -3.21519,1.53497 -4.12621,11.77372 -3.32184,37.33411 -7.45523,48.76101 -30.02529,83.00594 -21.79043,33.06204 -25.75674,43.32797 -29.24516,75.69492 -6.47892,60.11416 -19.43444,75.86583 -70.20303,85.35464 -11.1594,2.08572 -24.20893,4.97171 -28.99898,6.4133 -4.79004,1.4416 -9.05055,2.2797 -9.46781,1.86246 -0.41724,-0.41727 2.7087,-14.08845 6.94654,-30.38045 14.59107,-56.09399 14.89545,-57.69958 15.16462,-79.98996 0.16468,-13.63514 -0.47567,-22.01705 -1.78175,-23.32313 -2.66177,-2.66177 -5.37076,9.06733 -7.99366,34.60993 -1.07796,10.49744 -4.8318,30.94698 -8.34189,45.44343 -3.51007,14.49646 -8.71983,37.11098 -11.57722,50.25451 -5.9748,27.48301 -9.36728,35.06112 -21.88241,48.88078 -10.51314,11.60896 -11.28703,14.34976 -3.57337,12.65556 l 5.45321,-1.19773 0.0793,13.32301 c 0.0434,7.32768 0.79053,17.00395 1.65999,21.50285 0.86946,4.4989 1.44732,8.22565 1.28414,8.28167 -0.16323,0.056 -6.02256,-3.81563 -13.02085,-8.60366 l -1.1e-4,0 z"
   id="path3216"
   inkscape:connector-curvature="0" /><path
   style="fill:#ffffff;fill-opacity:1;stroke:#000000;stroke-width:4;stroke-miterlimit:4;stroke-opacity:1;stroke-dasharray:none"
   d="m 390.63244,487.7633 c -3.97667,-4.39416 -6.8389,-12.92771 -17.70518,-52.78669 -15.04408,-55.18366 -21.30187,-73.62516 -32.70869,-96.39136 -12.90702,-25.76034 -14.71621,-34.75676 -9.24893,-45.99141 4.14726,-8.52219 18.35997,-26.6487 22.87674,-29.17642 4.35158,-2.43526 8.7055,6.51118 17.2797,35.50634 11.89336,40.21944 15.46142,51.35939 24.44756,76.32848 4.90106,13.6182 9.91165,32.08352 12.0845,44.53456 4.18153,23.96127 6.00915,29.77217 11.87801,37.766 2.79737,3.81021 3.58161,6.41378 2.46392,8.17982 -2.47642,3.91291 -2.0237,10.31569 1.16543,16.4828 1.57336,3.04253 2.59583,5.75129 2.27218,6.01946 -0.32366,0.26817 -7.62324,1.00548 -16.2213,1.63849 -13.63388,1.00372 -16.01017,0.73391 -18.58394,-2.11007 l 0,0 z"
   id="path3218"
   inkscape:connector-curvature="0" /><path
   style="fill:#ffffff;fill-opacity:1;stroke:#000000;stroke-width:4;stroke-miterlimit:4;stroke-opacity:1;stroke-dasharray:none"
   d="m 220.35377,233.41545 c -7.77657,-2.97047 -23.34486,-15.40611 -25.35132,-20.25014 -3.10626,-7.49917 -0.9582,-17.11215 3.5071,-15.69492 4.97697,1.57964 8.63468,-3.412 10.98241,-14.98759 2.39385,-11.80298 8.05256,-25.90154 10.39605,-25.90154 0.85602,0 2.33348,0.74055 3.28325,1.64567 1.03515,0.98648 6.45955,0.58678 13.54214,-0.99786 16.37819,-3.66441 34.18296,-3.92239 40.89909,-0.5926 3.32146,1.64675 7.45533,6.43336 10.57482,12.24459 l 5.12161,9.54095 -4.14466,13.16464 c -5.83058,18.51959 -14.91862,27.22751 -37.94433,36.35729 -16.21625,6.4298 -24.50897,7.89981 -30.86616,5.47151 z"
   id="path3220"
   inkscape:connector-curvature="0" /><path
   style="fill:#ffffff;fill-opacity:1;stroke:#000000;stroke-width:4;stroke-miterlimit:4;stroke-opacity:1;stroke-dasharray:none"
   d=""
   id="path3222"
   inkscape:connector-curvature="0" /><path
   style="fill:#ffffff;fill-opacity:1;stroke:#000000;stroke-width:4;stroke-miterlimit:4;stroke-opacity:1;stroke-dasharray:none"
   d="m 319.47563,261.7691 c -4.79074,-13.18092 -6.41726,-19.18205 -6.41726,-23.67684 0,-12.91538 18.1623,-49.63033 39.5499,-79.94984 14.13653,-20.04023 14.4643,-20.62627 10.73606,-19.19562 -4.75924,1.8263 -3.75386,-0.0382 7.87844,-14.61069 l 10.90323,-13.65914 -1.13972,8.86468 c -3.01722,23.46772 -30.85776,95.89656 -48.82362,127.01761 -7.94292,13.75898 -11.61452,18.16067 -12.68703,15.20984 z"
   id="path3224"
   inkscape:connector-curvature="0" /><path
   style="fill:#ffffff;fill-opacity:1;stroke:#000000;stroke-width:4;stroke-miterlimit:4;stroke-opacity:1;stroke-dasharray:none"
   d="m 134.77124,211.97176 c -0.0819,-0.97199 -0.053,-6.26615 0.0642,-11.7648 0.11721,-5.49866 -1.85741,-32.49206 -4.38804,-59.98533 -5.03895,-54.744283 -5.57754,-69.943782 -2.74265,-77.400112 l 1.87335,-4.927288 4.66144,4.354519 c 5.00943,4.679591 9.76923,12.719525 9.76923,16.501503 0,1.281482 -2.1874,-0.927349 -4.8609,-4.908509 -6.56897,-9.781989 -8.51974,-10.775786 -10.04268,-5.116128 -1.64489,6.112876 0.64901,17.544607 7.5986,37.867875 9.58518,28.03071 11.21219,36.56169 11.07731,58.08198 -0.1402,22.37079 -3.71503,39.84247 -9.30522,45.47855 -1.95569,1.97174 -3.62279,2.78972 -3.70467,1.81774 l 0,0 z"
   id="path3226"
   inkscape:connector-curvature="0" /><path
   style="fill:#ffffff;fill-opacity:1;stroke:#000000;stroke-width:4;stroke-miterlimit:4;stroke-opacity:1;stroke-dasharray:none"
   d="m 67.366405,580.26157 c -5.662244,-1.81083 -13.14953,-5.05663 -16.638413,-7.21289 -13.717716,-8.478 -26.469478,-27.60179 -29.479915,-44.21096 -1.069288,-5.89947 -0.587418,-7.28756 3.856936,-11.11043 4.940074,-4.24928 5.100321,-4.96978 5.863014,-26.36145 0.431268,-12.09603 0.258391,-23.36282 -0.384172,-25.03731 -1.080218,-2.815 -1.439517,-2.79908 -4.765873,0.21123 -4.790131,4.33501 -4.573378,2.37397 1.944584,-17.59332 20.166109,-61.77734 58.092819,-103.87719 86.652394,-96.18689 34.9012,9.39791 62.50961,91.08118 56.55671,167.33079 -2.54133,32.55148 -8.87174,42.94292 -32.50945,53.3647 -22.9483,10.11779 -52.034704,12.90246 -71.095815,6.80653 z m 38.805575,-44.85567 5.60834,-2.90018 -0.94252,-15.10738 c -0.69394,-11.12305 -2.04543,-17.06975 -5.12445,-22.54814 -2.30007,-4.09241 -4.8493,-7.56345 -5.66496,-7.71342 -5.813324,-1.06881 -5.936017,-0.56255 -5.351404,22.08093 0.521707,20.20705 2.027397,29.08838 4.931478,29.08838 0.514346,0 3.458936,-1.30508 6.543516,-2.90019 l 0,0 z"
   id="path3228"
   inkscape:connector-curvature="0" /><path
   style="fill:#ffffff;fill-opacity:1;stroke:#000000;stroke-width:4;stroke-miterlimit:4;stroke-opacity:1;stroke-dasharray:none"
   d="m 499.06456,950.47195 -14.29688,-13.37029 1.32456,-7.75897 c 2.20677,-12.92678 -2.76903,-31.4609 -10.94774,-40.77872 -3.68013,-4.19269 -2.49281,-5.00254 16.82712,-11.47752 32.19116,-10.78871 43.34336,-5.39336 48.35655,23.39457 l 2.07824,11.9341 -9.69969,17.8434 c -5.33484,9.81387 -11.01803,21.101 -12.62933,25.0825 -1.61129,3.98151 -3.78154,7.52308 -4.82278,7.87016 -1.04125,0.34708 -8.32677,-5.38557 -16.19005,-12.73923 z"
   id="path3230"
   inkscape:connector-curvature="0" /><path
   style="fill:#ffffff;fill-opacity:1;stroke:#000000;stroke-width:4;stroke-miterlimit:4;stroke-opacity:1;stroke-dasharray:none"
   d="m 674.2404,904.58014 c -0.59654,-3.99902 -1.61809,-12.17884 -2.27011,-18.17737 -1.49428,-13.74729 -3.68596,-18.35037 -7.30653,-15.34555 -1.42991,1.1867 -2.62471,3.48898 -2.65512,5.11613 -0.0485,2.5944 -0.28328,2.567 -1.90806,-0.22257 -2.33002,-4.0004 -6.7661,-4.0696 -11.07212,-0.17268 -4.15469,3.75993 -4.1485,4.03516 -0.52976,-23.55833 3.88299,-29.60849 5.16495,-32.3324 8.04159,-17.08684 3.69233,19.56863 5.37169,16.84988 9.27889,-15.02189 2.89005,-23.57478 4.46942,-27.14674 6.01592,-13.60589 1.93414,16.93498 4.05231,17.71407 6.58464,2.4219 1.22145,-7.37614 6.57741,-34.67867 11.90212,-60.67231 14.7325,-71.91961 18.9894,-111.27642 15.41241,-142.49412 -1.07577,-9.38864 -1.65951,-17.36668 -1.29721,-17.72899 1.23431,-1.2343 12.18524,40.24015 16.63524,63.0026 9.63528,49.28602 9.99109,95.2647 1.06181,137.21073 -3.66283,17.20645 -17.6298,64.90114 -23.2623,79.43659 -2.88155,7.43624 -3.58907,8.14374 -5.45333,5.45321 -1.99244,-2.87553 -2.34038,-2.84072 -4.97778,0.49797 -1.55958,1.97428 -4.4997,9.33612 -6.53361,16.35964 -6.82504,23.56838 -6.43713,22.83029 -7.66669,14.58777 z"
   id="path3232"
   inkscape:connector-curvature="0" /><path
   style="fill:#ffffff;fill-opacity:1;stroke:#000000;stroke-width:4;stroke-miterlimit:4;stroke-opacity:1;stroke-dasharray:none"
   d="m 312.83706,941.83039 c -8.06308,-6.06668 -29.83236,-14.4497 -36.83936,-14.18628 -3.6197,0.13608 -6.85234,-0.0897 -7.18365,-0.50185 -0.33131,-0.4121 -0.23655,-9.03318 0.21058,-19.15796 0.76549,-17.33398 1.02546,-18.35311 4.45293,-17.45681 4.59124,1.20064 3.8159,-1.71705 -6.16805,-23.21096 -6.583,-14.1722 -9.43684,-27.21839 -6.57911,-30.07612 0.6339,-0.6339 8.55216,4.16077 17.59615,10.65481 9.04398,6.49404 20.14946,13.22263 24.67884,14.95242 5.96062,2.27638 8.23524,4.14539 8.23524,6.76675 0,1.99193 2.65844,8.22016 5.90765,13.84051 5.8961,10.19886 5.90764,10.26846 5.90764,35.634 0,27.94783 -0.83361,29.80298 -10.21886,22.74149 z"
   id="path3234"
   inkscape:connector-curvature="0" /><path
   style="fill:#ffffff;fill-opacity:1;stroke:#000000;stroke-width:4;stroke-miterlimit:4;stroke-opacity:1;stroke-dasharray:none"
   d="m 273.97702,1009.0427 c -21.86158,-1.8134 -30.78361,-4.4337 -35.54187,-10.43847 -3.32406,-4.19485 -3.76673,-6.48863 -2.88561,-14.95252 1.94847,-18.71653 14.21473,-48.99793 21.40713,-52.84719 5.18653,-2.77574 17.19868,-0.70018 23.16702,4.003 2.61786,2.06293 11.3036,7.96643 19.30165,13.11889 l 14.5419,9.36811 -0.26129,8.24908 c -0.36673,11.57798 -7.80075,37.9854 -11.82673,42.0114 -1.84951,1.8495 -5.20321,3.2462 -7.45266,3.1037 -2.24945,-0.1424 -11.45174,-0.8696 -20.44954,-1.616 z"
   id="path3236"
   inkscape:connector-curvature="0" /><path
   style="fill:#ffffff;fill-opacity:1;stroke:#000000;stroke-width:4;stroke-miterlimit:4;stroke-opacity:1;stroke-dasharray:none"
   d="m 322.36564,1034.527 c -11.27171,-2.389 -16.57633,-6.3193 -16.58745,-12.2903 -0.005,-2.7263 4.66221,-19.0289 10.37176,-36.2281 9.61557,-28.96551 10.81429,-31.5046 16.2575,-34.43596 5.74259,-3.09258 6.22077,-3.04655 20.9842,2.02015 51.67607,17.73482 74.18416,33.85099 74.18416,53.11711 0,15.1571 -5.32368,19.6701 -29.99266,25.4249 -13.29108,3.1005 -64.23114,4.7206 -75.21751,2.3922 l 0,0 z"
   id="path3238"
   inkscape:connector-curvature="0" /><path
   style="fill:#ffffff;fill-opacity:1;stroke:#000000;stroke-width:4;stroke-miterlimit:4;stroke-opacity:1;stroke-dasharray:none"
   d="m 449.8431,1018.2322 c -5.0602,-2.1578 -5.06941,-1.7013 0.48691,-24.15781 5.18874,-20.97086 9.78892,-31.53432 17.17658,-39.44284 4.88366,-5.22798 5.39636,-5.3668 11.72655,-3.17523 9.36295,3.24153 24.51264,16.88499 28.50135,25.66765 8.40247,18.50121 1.22698,33.12193 -18.74462,38.19393 -14.00247,3.5561 -34.12812,5.0543 -39.14677,2.9143 z"
   id="path3240"
   inkscape:connector-curvature="0" /><path
   style="fill:#ffffff;fill-opacity:1;stroke:#000000;stroke-width:4;stroke-miterlimit:4;stroke-opacity:1;stroke-dasharray:none"
   d="m 557.54403,1021.0136 c -16.96073,-3.3164 -35.61294,-7.8392 -36.66406,-8.8904 -1.25868,-1.2586 9.85798,-52.03252 13.32428,-60.85687 2.82988,-7.20416 3.37976,-7.60497 10.43692,-7.60732 4.0973,-10e-4 14.40249,-1.25167 22.90041,-2.77845 16.4191,-2.94994 30.12927,-2.21968 38.46642,2.04888 10.84347,5.55177 15.75196,16.8764 19.84291,45.7806 2.7908,19.71816 1.65922,23.11916 -9.86795,29.65796 -6.40496,3.6333 -10.42038,4.3429 -26.62853,4.7061 -10.647,0.2385 -24.7124,-0.6726 -31.8104,-2.0605 z"
   id="path3242"
   inkscape:connector-curvature="0" /></svg>